<?xml version="1.0" encoding="utf-8" standalone="no"?>
<!DOCTYPE svg PUBLIC "-//W3C//DTD SVG 1.1//EN"
  "http://www.w3.org/Graphics/SVG/1.1/DTD/svg11.dtd">
<svg xmlns:xlink="http://www.w3.org/1999/xlink" width="864pt" height="576pt" viewBox="0 0 864 576" xmlns="http://www.w3.org/2000/svg" version="1.1">
 <metadata>
  <rdf:RDF xmlns:dc="http://purl.org/dc/elements/1.1/" xmlns:cc="http://creativecommons.org/ns#" xmlns:rdf="http://www.w3.org/1999/02/22-rdf-syntax-ns#">
   <cc:Work>
    <dc:type rdf:resource="http://purl.org/dc/dcmitype/StillImage"/>
    <dc:date>2025-04-19T16:27:05.344524</dc:date>
    <dc:format>image/svg+xml</dc:format>
    <dc:creator>
     <cc:Agent>
      <dc:title>Matplotlib v3.10.0, https://matplotlib.org/</dc:title>
     </cc:Agent>
    </dc:creator>
   </cc:Work>
  </rdf:RDF>
 </metadata>
 <defs>
  <style type="text/css">*{stroke-linejoin: round; stroke-linecap: butt}</style>
 </defs>
 <g id="figure_1">
  <g id="patch_1">
   <path d="M 0 576 
L 864 576 
L 864 0 
L 0 0 
z
" style="fill: #ffffff"/>
  </g>
  <g id="axes_1">
   <g id="patch_2">
    <path d="M 45.48 537.54 
L 847.665 537.54 
L 847.665 25.44 
L 45.48 25.44 
z
" style="fill: #ffffff"/>
   </g>
   <g id="matplotlib.axis_1">
    <g id="xtick_1">
     <g id="line2d_1">
      <path d="M 45.48 537.54 
L 45.48 25.44 
" clip-path="url(#p126798e5d3)" style="fill: none; stroke: #cccccc; stroke-width: 0.8; stroke-linecap: round"/>
     </g>
     <g id="line2d_2"/>
     <g id="text_1">
      <!-- 0 -->
      <g style="fill: #262626" transform="translate(42.699531 548.286875) scale(0.1 -0.1)">
       <defs>
        <path id="LiberationSans-30" d="M 3309 2203 
Q 3309 1569 3189 1136 
Q 3069 703 2861 436 
Q 2653 169 2372 53 
Q 2091 -63 1772 -63 
Q 1450 -63 1172 53 
Q 894 169 689 434 
Q 484 700 367 1133 
Q 250 1566 250 2203 
Q 250 2869 367 3305 
Q 484 3741 690 4000 
Q 897 4259 1178 4364 
Q 1459 4469 1791 4469 
Q 2106 4469 2382 4364 
Q 2659 4259 2865 4000 
Q 3072 3741 3190 3305 
Q 3309 2869 3309 2203 
z
M 2738 2203 
Q 2738 2728 2675 3076 
Q 2613 3425 2491 3633 
Q 2369 3841 2192 3927 
Q 2016 4013 1791 4013 
Q 1553 4013 1372 3925 
Q 1191 3838 1067 3630 
Q 944 3422 881 3073 
Q 819 2725 819 2203 
Q 819 1697 883 1350 
Q 947 1003 1070 792 
Q 1194 581 1372 489 
Q 1550 397 1778 397 
Q 2000 397 2178 489 
Q 2356 581 2479 792 
Q 2603 1003 2670 1350 
Q 2738 1697 2738 2203 
z
" transform="scale(0.015625)"/>
       </defs>
       <use xlink:href="#LiberationSans-30"/>
      </g>
     </g>
    </g>
    <g id="xtick_2">
     <g id="line2d_3">
      <path d="M 134.611667 537.54 
L 134.611667 25.44 
" clip-path="url(#p126798e5d3)" style="fill: none; stroke: #cccccc; stroke-width: 0.8; stroke-linecap: round"/>
     </g>
     <g id="line2d_4"/>
     <g id="text_2">
      <!-- 2 -->
      <g style="fill: #262626" transform="translate(131.831198 548.286875) scale(0.1 -0.1)">
       <defs>
        <path id="LiberationSans-32" d="M 322 0 
L 322 397 
Q 481 763 711 1042 
Q 941 1322 1194 1548 
Q 1447 1775 1695 1969 
Q 1944 2163 2144 2356 
Q 2344 2550 2467 2762 
Q 2591 2975 2591 3244 
Q 2591 3431 2534 3573 
Q 2478 3716 2372 3812 
Q 2266 3909 2117 3957 
Q 1969 4006 1788 4006 
Q 1619 4006 1470 3959 
Q 1322 3913 1206 3819 
Q 1091 3725 1017 3586 
Q 944 3447 922 3263 
L 347 3316 
Q 375 3553 478 3762 
Q 581 3972 762 4130 
Q 944 4288 1198 4378 
Q 1453 4469 1788 4469 
Q 2116 4469 2372 4391 
Q 2628 4313 2804 4159 
Q 2981 4006 3075 3781 
Q 3169 3556 3169 3263 
Q 3169 3041 3089 2841 
Q 3009 2641 2876 2459 
Q 2744 2278 2569 2109 
Q 2394 1941 2203 1780 
Q 2013 1619 1819 1461 
Q 1625 1303 1454 1143 
Q 1284 984 1150 820 
Q 1016 656 941 478 
L 3238 478 
L 3238 0 
L 322 0 
z
" transform="scale(0.015625)"/>
       </defs>
       <use xlink:href="#LiberationSans-32"/>
      </g>
     </g>
    </g>
    <g id="xtick_3">
     <g id="line2d_5">
      <path d="M 223.743333 537.54 
L 223.743333 25.44 
" clip-path="url(#p126798e5d3)" style="fill: none; stroke: #cccccc; stroke-width: 0.8; stroke-linecap: round"/>
     </g>
     <g id="line2d_6"/>
     <g id="text_3">
      <!-- 4 -->
      <g style="fill: #262626" transform="translate(220.962865 548.286875) scale(0.1 -0.1)">
       <defs>
        <path id="LiberationSans-34" d="M 2753 997 
L 2753 0 
L 2222 0 
L 2222 997 
L 147 997 
L 147 1434 
L 2163 4403 
L 2753 4403 
L 2753 1441 
L 3372 1441 
L 3372 997 
L 2753 997 
z
M 2222 3769 
Q 2216 3753 2191 3708 
Q 2166 3663 2134 3606 
Q 2103 3550 2070 3492 
Q 2038 3434 2013 3397 
L 884 1734 
Q 869 1709 839 1668 
Q 809 1628 778 1586 
Q 747 1544 715 1503 
Q 684 1463 666 1441 
L 2222 1441 
L 2222 3769 
z
" transform="scale(0.015625)"/>
       </defs>
       <use xlink:href="#LiberationSans-34"/>
      </g>
     </g>
    </g>
    <g id="xtick_4">
     <g id="line2d_7">
      <path d="M 312.875 537.54 
L 312.875 25.44 
" clip-path="url(#p126798e5d3)" style="fill: none; stroke: #cccccc; stroke-width: 0.8; stroke-linecap: round"/>
     </g>
     <g id="line2d_8"/>
     <g id="text_4">
      <!-- 6 -->
      <g style="fill: #262626" transform="translate(310.094531 548.286875) scale(0.1 -0.1)">
       <defs>
        <path id="LiberationSans-36" d="M 3278 1441 
Q 3278 1109 3186 832 
Q 3094 556 2914 357 
Q 2734 159 2468 48 
Q 2203 -63 1856 -63 
Q 1472 -63 1184 84 
Q 897 231 706 507 
Q 516 784 420 1186 
Q 325 1588 325 2100 
Q 325 2688 433 3131 
Q 541 3575 744 3872 
Q 947 4169 1239 4319 
Q 1531 4469 1900 4469 
Q 2125 4469 2322 4422 
Q 2519 4375 2680 4270 
Q 2841 4166 2962 3994 
Q 3084 3822 3156 3572 
L 2619 3475 
Q 2531 3759 2339 3886 
Q 2147 4013 1894 4013 
Q 1663 4013 1475 3903 
Q 1288 3794 1156 3576 
Q 1025 3359 954 3031 
Q 884 2703 884 2266 
Q 1038 2550 1316 2698 
Q 1594 2847 1953 2847 
Q 2253 2847 2497 2750 
Q 2741 2653 2914 2470 
Q 3088 2288 3183 2027 
Q 3278 1766 3278 1441 
z
M 2706 1416 
Q 2706 1644 2650 1828 
Q 2594 2013 2481 2142 
Q 2369 2272 2203 2342 
Q 2038 2413 1819 2413 
Q 1666 2413 1509 2367 
Q 1353 2322 1226 2220 
Q 1100 2119 1020 1953 
Q 941 1788 941 1550 
Q 941 1306 1003 1095 
Q 1066 884 1183 728 
Q 1300 572 1465 481 
Q 1631 391 1838 391 
Q 2041 391 2202 461 
Q 2363 531 2475 664 
Q 2588 797 2647 987 
Q 2706 1178 2706 1416 
z
" transform="scale(0.015625)"/>
       </defs>
       <use xlink:href="#LiberationSans-36"/>
      </g>
     </g>
    </g>
    <g id="xtick_5">
     <g id="line2d_9">
      <path d="M 402.006667 537.54 
L 402.006667 25.44 
" clip-path="url(#p126798e5d3)" style="fill: none; stroke: #cccccc; stroke-width: 0.8; stroke-linecap: round"/>
     </g>
     <g id="line2d_10"/>
     <g id="text_5">
      <!-- 8 -->
      <g style="fill: #262626" transform="translate(399.226198 548.286875) scale(0.1 -0.1)">
       <defs>
        <path id="LiberationSans-38" d="M 3281 1228 
Q 3281 947 3192 711 
Q 3103 475 2920 303 
Q 2738 131 2453 34 
Q 2169 -63 1781 -63 
Q 1394 -63 1111 34 
Q 828 131 642 301 
Q 456 472 367 708 
Q 278 944 278 1222 
Q 278 1463 351 1650 
Q 425 1838 548 1973 
Q 672 2109 830 2192 
Q 988 2275 1156 2303 
L 1156 2316 
Q 972 2359 826 2456 
Q 681 2553 582 2689 
Q 484 2825 432 2990 
Q 381 3156 381 3341 
Q 381 3572 470 3776 
Q 559 3981 734 4136 
Q 909 4291 1168 4380 
Q 1428 4469 1769 4469 
Q 2128 4469 2392 4378 
Q 2656 4288 2829 4133 
Q 3003 3978 3087 3772 
Q 3172 3566 3172 3334 
Q 3172 3153 3120 2987 
Q 3069 2822 2970 2686 
Q 2872 2550 2726 2454 
Q 2581 2359 2391 2322 
L 2391 2309 
Q 2581 2278 2743 2195 
Q 2906 2113 3025 1977 
Q 3144 1841 3212 1653 
Q 3281 1466 3281 1228 
z
M 2588 3303 
Q 2588 3469 2545 3606 
Q 2503 3744 2406 3842 
Q 2309 3941 2153 3995 
Q 1997 4050 1769 4050 
Q 1547 4050 1394 3995 
Q 1241 3941 1142 3842 
Q 1044 3744 1000 3606 
Q 956 3469 956 3303 
Q 956 3172 990 3034 
Q 1025 2897 1115 2784 
Q 1206 2672 1365 2600 
Q 1525 2528 1775 2528 
Q 2041 2528 2202 2600 
Q 2363 2672 2448 2784 
Q 2534 2897 2561 3034 
Q 2588 3172 2588 3303 
z
M 2697 1281 
Q 2697 1441 2653 1589 
Q 2609 1738 2503 1852 
Q 2397 1966 2217 2036 
Q 2038 2106 1769 2106 
Q 1522 2106 1348 2036 
Q 1175 1966 1067 1850 
Q 959 1734 909 1582 
Q 859 1431 859 1269 
Q 859 1066 909 898 
Q 959 731 1068 611 
Q 1178 491 1356 425 
Q 1534 359 1788 359 
Q 2044 359 2219 425 
Q 2394 491 2500 611 
Q 2606 731 2651 901 
Q 2697 1072 2697 1281 
z
" transform="scale(0.015625)"/>
       </defs>
       <use xlink:href="#LiberationSans-38"/>
      </g>
     </g>
    </g>
    <g id="xtick_6">
     <g id="line2d_11">
      <path d="M 491.138333 537.54 
L 491.138333 25.44 
" clip-path="url(#p126798e5d3)" style="fill: none; stroke: #cccccc; stroke-width: 0.8; stroke-linecap: round"/>
     </g>
     <g id="line2d_12"/>
     <g id="text_6">
      <!-- 10 -->
      <g style="fill: #262626" transform="translate(485.577396 548.286875) scale(0.1 -0.1)">
       <defs>
        <path id="LiberationSans-31" d="M 488 0 
L 488 478 
L 1609 478 
L 1609 3866 
L 616 3156 
L 616 3688 
L 1656 4403 
L 2175 4403 
L 2175 478 
L 3247 478 
L 3247 0 
L 488 0 
z
" transform="scale(0.015625)"/>
       </defs>
       <use xlink:href="#LiberationSans-31"/>
       <use xlink:href="#LiberationSans-30" transform="translate(55.615234 0)"/>
      </g>
     </g>
    </g>
    <g id="xtick_7">
     <g id="line2d_13">
      <path d="M 580.27 537.54 
L 580.27 25.44 
" clip-path="url(#p126798e5d3)" style="fill: none; stroke: #cccccc; stroke-width: 0.8; stroke-linecap: round"/>
     </g>
     <g id="line2d_14"/>
     <g id="text_7">
      <!-- 12 -->
      <g style="fill: #262626" transform="translate(574.709062 548.286875) scale(0.1 -0.1)">
       <use xlink:href="#LiberationSans-31"/>
       <use xlink:href="#LiberationSans-32" transform="translate(55.615234 0)"/>
      </g>
     </g>
    </g>
    <g id="xtick_8">
     <g id="line2d_15">
      <path d="M 669.401667 537.54 
L 669.401667 25.44 
" clip-path="url(#p126798e5d3)" style="fill: none; stroke: #cccccc; stroke-width: 0.8; stroke-linecap: round"/>
     </g>
     <g id="line2d_16"/>
     <g id="text_8">
      <!-- 14 -->
      <g style="fill: #262626" transform="translate(663.840729 548.286875) scale(0.1 -0.1)">
       <use xlink:href="#LiberationSans-31"/>
       <use xlink:href="#LiberationSans-34" transform="translate(55.615234 0)"/>
      </g>
     </g>
    </g>
    <g id="xtick_9">
     <g id="line2d_17">
      <path d="M 758.533333 537.54 
L 758.533333 25.44 
" clip-path="url(#p126798e5d3)" style="fill: none; stroke: #cccccc; stroke-width: 0.8; stroke-linecap: round"/>
     </g>
     <g id="line2d_18"/>
     <g id="text_9">
      <!-- 16 -->
      <g style="fill: #262626" transform="translate(752.972396 548.286875) scale(0.1 -0.1)">
       <use xlink:href="#LiberationSans-31"/>
       <use xlink:href="#LiberationSans-36" transform="translate(55.615234 0)"/>
      </g>
     </g>
    </g>
    <g id="xtick_10">
     <g id="line2d_19">
      <path d="M 847.665 537.54 
L 847.665 25.44 
" clip-path="url(#p126798e5d3)" style="fill: none; stroke: #cccccc; stroke-width: 0.8; stroke-linecap: round"/>
     </g>
     <g id="line2d_20"/>
     <g id="text_10">
      <!-- 18 -->
      <g style="fill: #262626" transform="translate(842.104062 548.286875) scale(0.1 -0.1)">
       <use xlink:href="#LiberationSans-31"/>
       <use xlink:href="#LiberationSans-38" transform="translate(55.615234 0)"/>
      </g>
     </g>
    </g>
    <g id="text_11">
     <!-- Lag (months) -->
     <g style="fill: #262626" transform="translate(417.117031 561.60875) scale(0.1 -0.1)">
      <defs>
       <path id="LiberationSans-4c" d="M 525 0 
L 525 4403 
L 1122 4403 
L 1122 488 
L 3347 488 
L 3347 0 
L 525 0 
z
" transform="scale(0.015625)"/>
       <path id="LiberationSans-61" d="M 1294 -63 
Q 784 -63 528 206 
Q 272 475 272 944 
Q 272 1278 398 1492 
Q 525 1706 729 1828 
Q 934 1950 1196 1997 
Q 1459 2044 1731 2050 
L 2491 2063 
L 2491 2247 
Q 2491 2456 2447 2603 
Q 2403 2750 2312 2840 
Q 2222 2931 2086 2973 
Q 1950 3016 1766 3016 
Q 1603 3016 1472 2992 
Q 1341 2969 1244 2908 
Q 1147 2847 1087 2742 
Q 1028 2638 1009 2478 
L 422 2531 
Q 453 2731 540 2898 
Q 628 3066 789 3187 
Q 950 3309 1192 3376 
Q 1434 3444 1778 3444 
Q 2416 3444 2737 3151 
Q 3059 2859 3059 2306 
L 3059 850 
Q 3059 600 3125 473 
Q 3191 347 3375 347 
Q 3422 347 3469 353 
Q 3516 359 3559 369 
L 3559 19 
Q 3453 -6 3348 -18 
Q 3244 -31 3125 -31 
Q 2966 -31 2852 11 
Q 2738 53 2666 139 
Q 2594 225 2556 351 
Q 2519 478 2509 647 
L 2491 647 
Q 2400 484 2292 353 
Q 2184 222 2040 130 
Q 1897 38 1714 -12 
Q 1531 -63 1294 -63 
z
M 1422 359 
Q 1691 359 1892 457 
Q 2094 556 2226 709 
Q 2359 863 2425 1044 
Q 2491 1225 2491 1391 
L 2491 1669 
L 1875 1656 
Q 1669 1653 1483 1626 
Q 1297 1600 1156 1522 
Q 1016 1444 933 1303 
Q 850 1163 850 934 
Q 850 659 998 509 
Q 1147 359 1422 359 
z
" transform="scale(0.015625)"/>
       <path id="LiberationSans-67" d="M 1713 -1328 
Q 1422 -1328 1197 -1268 
Q 972 -1209 812 -1098 
Q 653 -988 553 -834 
Q 453 -681 409 -494 
L 975 -413 
Q 1031 -647 1223 -773 
Q 1416 -900 1728 -900 
Q 1919 -900 2075 -847 
Q 2231 -794 2340 -676 
Q 2450 -559 2509 -371 
Q 2569 -184 2569 84 
L 2569 628 
L 2563 628 
Q 2500 500 2408 383 
Q 2316 266 2183 175 
Q 2050 84 1875 29 
Q 1700 -25 1475 -25 
Q 1153 -25 923 83 
Q 694 191 548 406 
Q 403 622 336 942 
Q 269 1263 269 1684 
Q 269 2091 336 2416 
Q 403 2741 554 2967 
Q 706 3194 948 3314 
Q 1191 3434 1538 3434 
Q 1897 3434 2161 3270 
Q 2425 3106 2569 2803 
L 2575 2803 
Q 2575 2881 2579 2978 
Q 2584 3075 2589 3161 
Q 2594 3247 2600 3309 
Q 2606 3372 2613 3381 
L 3147 3381 
Q 3144 3353 3141 3286 
Q 3138 3219 3134 3125 
Q 3131 3031 3129 2917 
Q 3128 2803 3128 2681 
L 3128 97 
Q 3128 -613 2779 -970 
Q 2431 -1328 1713 -1328 
z
M 2569 1691 
Q 2569 2044 2492 2295 
Q 2416 2547 2291 2706 
Q 2166 2866 2005 2941 
Q 1844 3016 1675 3016 
Q 1459 3016 1304 2941 
Q 1150 2866 1048 2705 
Q 947 2544 898 2292 
Q 850 2041 850 1691 
Q 850 1325 898 1076 
Q 947 828 1047 675 
Q 1147 522 1300 456 
Q 1453 391 1666 391 
Q 1834 391 1995 462 
Q 2156 534 2284 690 
Q 2413 847 2491 1094 
Q 2569 1341 2569 1691 
z
" transform="scale(0.015625)"/>
       <path id="LiberationSans-20" transform="scale(0.015625)"/>
       <path id="LiberationSans-28" d="M 397 1663 
Q 397 2097 462 2494 
Q 528 2891 668 3256 
Q 809 3622 1028 3965 
Q 1247 4309 1550 4638 
L 2094 4638 
Q 1800 4309 1586 3964 
Q 1372 3619 1234 3251 
Q 1097 2884 1030 2487 
Q 963 2091 963 1656 
Q 963 1222 1030 825 
Q 1097 428 1234 59 
Q 1372 -309 1586 -653 
Q 1800 -997 2094 -1325 
L 1550 -1325 
Q 1247 -997 1028 -653 
Q 809 -309 668 56 
Q 528 422 462 817 
Q 397 1213 397 1650 
L 397 1663 
z
" transform="scale(0.015625)"/>
       <path id="LiberationSans-6d" d="M 2400 0 
L 2400 2144 
Q 2400 2391 2369 2556 
Q 2338 2722 2264 2823 
Q 2191 2925 2072 2967 
Q 1953 3009 1781 3009 
Q 1603 3009 1459 2939 
Q 1316 2869 1214 2736 
Q 1113 2603 1058 2408 
Q 1003 2213 1003 1959 
L 1003 0 
L 444 0 
L 444 2659 
Q 444 2766 442 2883 
Q 441 3000 437 3104 
Q 434 3209 431 3284 
Q 428 3359 425 3381 
L 956 3381 
Q 959 3366 962 3297 
Q 966 3228 970 3139 
Q 975 3050 978 2958 
Q 981 2866 981 2803 
L 991 2803 
Q 1066 2950 1153 3069 
Q 1241 3188 1358 3270 
Q 1475 3353 1626 3398 
Q 1778 3444 1978 3444 
Q 2363 3444 2586 3291 
Q 2809 3138 2897 2803 
L 2906 2803 
Q 2981 2950 3075 3069 
Q 3169 3188 3294 3270 
Q 3419 3353 3575 3398 
Q 3731 3444 3931 3444 
Q 4188 3444 4373 3375 
Q 4559 3306 4678 3162 
Q 4797 3019 4853 2792 
Q 4909 2566 4909 2253 
L 4909 0 
L 4353 0 
L 4353 2144 
Q 4353 2391 4322 2556 
Q 4291 2722 4217 2823 
Q 4144 2925 4025 2967 
Q 3906 3009 3734 3009 
Q 3556 3009 3412 2942 
Q 3269 2875 3167 2744 
Q 3066 2613 3011 2416 
Q 2956 2219 2956 1959 
L 2956 0 
L 2400 0 
z
" transform="scale(0.015625)"/>
       <path id="LiberationSans-6f" d="M 3291 1694 
Q 3291 806 2900 371 
Q 2509 -63 1766 -63 
Q 1413 -63 1134 43 
Q 856 150 664 369 
Q 472 588 370 917 
Q 269 1247 269 1694 
Q 269 3444 1784 3444 
Q 2178 3444 2464 3334 
Q 2750 3225 2933 3006 
Q 3116 2788 3203 2459 
Q 3291 2131 3291 1694 
z
M 2700 1694 
Q 2700 2088 2639 2344 
Q 2578 2600 2461 2753 
Q 2344 2906 2175 2967 
Q 2006 3028 1794 3028 
Q 1578 3028 1404 2964 
Q 1231 2900 1109 2745 
Q 988 2591 923 2334 
Q 859 2078 859 1694 
Q 859 1300 928 1042 
Q 997 784 1117 631 
Q 1238 478 1402 415 
Q 1566 353 1759 353 
Q 1975 353 2150 414 
Q 2325 475 2447 628 
Q 2569 781 2634 1040 
Q 2700 1300 2700 1694 
z
" transform="scale(0.015625)"/>
       <path id="LiberationSans-6e" d="M 2578 0 
L 2578 2144 
Q 2578 2391 2542 2556 
Q 2506 2722 2425 2823 
Q 2344 2925 2211 2967 
Q 2078 3009 1881 3009 
Q 1681 3009 1520 2939 
Q 1359 2869 1245 2736 
Q 1131 2603 1068 2408 
Q 1006 2213 1006 1959 
L 1006 0 
L 444 0 
L 444 2659 
Q 444 2766 442 2883 
Q 441 3000 437 3104 
Q 434 3209 431 3284 
Q 428 3359 425 3381 
L 956 3381 
Q 959 3366 962 3297 
Q 966 3228 970 3139 
Q 975 3050 978 2958 
Q 981 2866 981 2803 
L 991 2803 
Q 1072 2950 1169 3069 
Q 1266 3188 1394 3270 
Q 1522 3353 1687 3398 
Q 1853 3444 2072 3444 
Q 2353 3444 2556 3375 
Q 2759 3306 2890 3162 
Q 3022 3019 3083 2792 
Q 3144 2566 3144 2253 
L 3144 0 
L 2578 0 
z
" transform="scale(0.015625)"/>
       <path id="LiberationSans-74" d="M 1731 25 
Q 1603 -9 1470 -29 
Q 1338 -50 1163 -50 
Q 488 -50 488 716 
L 488 2972 
L 97 2972 
L 97 3381 
L 509 3381 
L 675 4138 
L 1050 4138 
L 1050 3381 
L 1675 3381 
L 1675 2972 
L 1050 2972 
L 1050 838 
Q 1050 594 1129 495 
Q 1209 397 1406 397 
Q 1488 397 1564 409 
Q 1641 422 1731 441 
L 1731 25 
z
" transform="scale(0.015625)"/>
       <path id="LiberationSans-68" d="M 991 2803 
Q 1084 2975 1193 3095 
Q 1303 3216 1434 3294 
Q 1566 3372 1722 3408 
Q 1878 3444 2072 3444 
Q 2397 3444 2605 3356 
Q 2813 3269 2933 3111 
Q 3053 2953 3098 2734 
Q 3144 2516 3144 2253 
L 3144 0 
L 2578 0 
L 2578 2144 
Q 2578 2359 2551 2521 
Q 2525 2684 2450 2792 
Q 2375 2900 2237 2954 
Q 2100 3009 1881 3009 
Q 1681 3009 1520 2937 
Q 1359 2866 1245 2734 
Q 1131 2603 1068 2415 
Q 1006 2228 1006 1994 
L 1006 0 
L 444 0 
L 444 4638 
L 1006 4638 
L 1006 3431 
Q 1006 3328 1003 3225 
Q 1000 3122 995 3034 
Q 991 2947 987 2886 
Q 984 2825 981 2803 
L 991 2803 
z
" transform="scale(0.015625)"/>
       <path id="LiberationSans-73" d="M 2969 934 
Q 2969 697 2876 511 
Q 2784 325 2609 198 
Q 2434 72 2179 4 
Q 1925 -63 1597 -63 
Q 1303 -63 1067 -17 
Q 831 28 653 128 
Q 475 228 354 392 
Q 234 556 178 794 
L 675 891 
Q 747 619 972 492 
Q 1197 366 1597 366 
Q 1778 366 1929 391 
Q 2081 416 2190 477 
Q 2300 538 2361 639 
Q 2422 741 2422 891 
Q 2422 1044 2350 1142 
Q 2278 1241 2150 1306 
Q 2022 1372 1839 1420 
Q 1656 1469 1438 1528 
Q 1234 1581 1034 1647 
Q 834 1713 673 1820 
Q 513 1928 413 2087 
Q 313 2247 313 2488 
Q 313 2950 642 3192 
Q 972 3434 1603 3434 
Q 2163 3434 2492 3237 
Q 2822 3041 2909 2606 
L 2403 2544 
Q 2375 2675 2300 2764 
Q 2225 2853 2119 2908 
Q 2013 2963 1880 2986 
Q 1747 3009 1603 3009 
Q 1222 3009 1040 2893 
Q 859 2778 859 2544 
Q 859 2406 926 2317 
Q 994 2228 1114 2167 
Q 1234 2106 1403 2061 
Q 1572 2016 1775 1966 
Q 1909 1931 2050 1892 
Q 2191 1853 2323 1798 
Q 2456 1744 2573 1670 
Q 2691 1597 2778 1494 
Q 2866 1391 2917 1253 
Q 2969 1116 2969 934 
z
" transform="scale(0.015625)"/>
       <path id="LiberationSans-29" d="M 1734 1650 
Q 1734 1213 1668 817 
Q 1603 422 1462 56 
Q 1322 -309 1103 -653 
Q 884 -997 581 -1325 
L 38 -1325 
Q 331 -997 545 -653 
Q 759 -309 896 59 
Q 1034 428 1101 825 
Q 1169 1222 1169 1656 
Q 1169 2091 1101 2487 
Q 1034 2884 896 3251 
Q 759 3619 545 3964 
Q 331 4309 38 4638 
L 581 4638 
Q 884 4309 1103 3965 
Q 1322 3622 1462 3256 
Q 1603 2891 1668 2494 
Q 1734 2097 1734 1663 
L 1734 1650 
z
" transform="scale(0.015625)"/>
      </defs>
      <use xlink:href="#LiberationSans-4c"/>
      <use xlink:href="#LiberationSans-61" transform="translate(55.615234 0)"/>
      <use xlink:href="#LiberationSans-67" transform="translate(111.230469 0)"/>
      <use xlink:href="#LiberationSans-20" transform="translate(166.845703 0)"/>
      <use xlink:href="#LiberationSans-28" transform="translate(194.628906 0)"/>
      <use xlink:href="#LiberationSans-6d" transform="translate(227.929688 0)"/>
      <use xlink:href="#LiberationSans-6f" transform="translate(311.230469 0)"/>
      <use xlink:href="#LiberationSans-6e" transform="translate(366.845703 0)"/>
      <use xlink:href="#LiberationSans-74" transform="translate(422.460938 0)"/>
      <use xlink:href="#LiberationSans-68" transform="translate(450.244141 0)"/>
      <use xlink:href="#LiberationSans-73" transform="translate(505.859375 0)"/>
      <use xlink:href="#LiberationSans-29" transform="translate(555.859375 0)"/>
     </g>
    </g>
   </g>
   <g id="matplotlib.axis_2">
    <g id="ytick_1">
     <g id="line2d_21">
      <path d="M 45.48 503.987976 
L 847.665 503.987976 
" clip-path="url(#p126798e5d3)" style="fill: none; stroke: #cccccc; stroke-width: 0.8; stroke-linecap: round"/>
     </g>
     <g id="line2d_22"/>
     <g id="text_12">
      <!-- −40 -->
      <g style="fill: #262626" transform="translate(25.0175 507.611413) scale(0.1 -0.1)">
       <defs>
        <path id="LiberationSans-2212" d="M 316 1900 
L 316 2356 
L 3425 2356 
L 3425 1900 
L 316 1900 
z
" transform="scale(0.015625)"/>
       </defs>
       <use xlink:href="#LiberationSans-2212"/>
       <use xlink:href="#LiberationSans-34" transform="translate(58.398438 0)"/>
       <use xlink:href="#LiberationSans-30" transform="translate(114.013672 0)"/>
      </g>
     </g>
    </g>
    <g id="ytick_2">
     <g id="line2d_23">
      <path d="M 45.48 415.403619 
L 847.665 415.403619 
" clip-path="url(#p126798e5d3)" style="fill: none; stroke: #cccccc; stroke-width: 0.8; stroke-linecap: round"/>
     </g>
     <g id="line2d_24"/>
     <g id="text_13">
      <!-- −20 -->
      <g style="fill: #262626" transform="translate(25.0175 419.027057) scale(0.1 -0.1)">
       <use xlink:href="#LiberationSans-2212"/>
       <use xlink:href="#LiberationSans-32" transform="translate(58.398438 0)"/>
       <use xlink:href="#LiberationSans-30" transform="translate(114.013672 0)"/>
      </g>
     </g>
    </g>
    <g id="ytick_3">
     <g id="line2d_25">
      <path d="M 45.48 326.819263 
L 847.665 326.819263 
" clip-path="url(#p126798e5d3)" style="fill: none; stroke: #cccccc; stroke-width: 0.8; stroke-linecap: round"/>
     </g>
     <g id="line2d_26"/>
     <g id="text_14">
      <!-- 0 -->
      <g style="fill: #262626" transform="translate(36.419063 330.4427) scale(0.1 -0.1)">
       <use xlink:href="#LiberationSans-30"/>
      </g>
     </g>
    </g>
    <g id="ytick_4">
     <g id="line2d_27">
      <path d="M 45.48 238.234906 
L 847.665 238.234906 
" clip-path="url(#p126798e5d3)" style="fill: none; stroke: #cccccc; stroke-width: 0.8; stroke-linecap: round"/>
     </g>
     <g id="line2d_28"/>
     <g id="text_15">
      <!-- 20 -->
      <g style="fill: #262626" transform="translate(30.858125 241.858344) scale(0.1 -0.1)">
       <use xlink:href="#LiberationSans-32"/>
       <use xlink:href="#LiberationSans-30" transform="translate(55.615234 0)"/>
      </g>
     </g>
    </g>
    <g id="ytick_5">
     <g id="line2d_29">
      <path d="M 45.48 149.65055 
L 847.665 149.65055 
" clip-path="url(#p126798e5d3)" style="fill: none; stroke: #cccccc; stroke-width: 0.8; stroke-linecap: round"/>
     </g>
     <g id="line2d_30"/>
     <g id="text_16">
      <!-- 40 -->
      <g style="fill: #262626" transform="translate(30.858125 153.273987) scale(0.1 -0.1)">
       <use xlink:href="#LiberationSans-34"/>
       <use xlink:href="#LiberationSans-30" transform="translate(55.615234 0)"/>
      </g>
     </g>
    </g>
    <g id="ytick_6">
     <g id="line2d_31">
      <path d="M 45.48 61.066194 
L 847.665 61.066194 
" clip-path="url(#p126798e5d3)" style="fill: none; stroke: #cccccc; stroke-width: 0.8; stroke-linecap: round"/>
     </g>
     <g id="line2d_32"/>
     <g id="text_17">
      <!-- 60 -->
      <g style="fill: #262626" transform="translate(30.858125 64.689631) scale(0.1 -0.1)">
       <use xlink:href="#LiberationSans-36"/>
       <use xlink:href="#LiberationSans-30" transform="translate(55.615234 0)"/>
      </g>
     </g>
    </g>
    <g id="text_18">
     <!-- Cross-Correlation in %, between Change in Home Price and 12-month expectation of change in Home Prices -->
     <g style="fill: #262626" transform="translate(18.9425 522.988438) rotate(-90) scale(0.1 -0.1)">
      <defs>
       <path id="LiberationSans-43" d="M 2475 3981 
Q 2100 3981 1811 3856 
Q 1522 3731 1326 3500 
Q 1131 3269 1031 2944 
Q 931 2619 931 2222 
Q 931 1825 1039 1495 
Q 1147 1166 1348 928 
Q 1550 691 1842 559 
Q 2134 428 2500 428 
Q 2756 428 2967 495 
Q 3178 563 3348 684 
Q 3519 806 3653 973 
Q 3788 1141 3891 1344 
L 4378 1100 
Q 4259 853 4084 640 
Q 3909 428 3673 272 
Q 3438 116 3139 26 
Q 2841 -63 2472 -63 
Q 1938 -63 1536 107 
Q 1134 278 864 583 
Q 594 888 459 1306 
Q 325 1725 325 2222 
Q 325 2738 467 3153 
Q 609 3569 882 3861 
Q 1156 4153 1556 4311 
Q 1956 4469 2469 4469 
Q 3172 4469 3644 4194 
Q 4116 3919 4338 3378 
L 3772 3191 
Q 3709 3347 3603 3489 
Q 3497 3631 3337 3740 
Q 3178 3850 2964 3915 
Q 2750 3981 2475 3981 
z
" transform="scale(0.015625)"/>
       <path id="LiberationSans-72" d="M 444 0 
L 444 2594 
Q 444 2700 442 2811 
Q 441 2922 437 3025 
Q 434 3128 431 3218 
Q 428 3309 425 3381 
L 956 3381 
Q 959 3309 964 3217 
Q 969 3125 973 3028 
Q 978 2931 979 2842 
Q 981 2753 981 2691 
L 994 2691 
Q 1053 2884 1120 3026 
Q 1188 3169 1278 3261 
Q 1369 3353 1494 3398 
Q 1619 3444 1797 3444 
Q 1866 3444 1928 3433 
Q 1991 3422 2025 3413 
L 2025 2897 
Q 1969 2913 1894 2920 
Q 1819 2928 1725 2928 
Q 1531 2928 1395 2840 
Q 1259 2753 1173 2598 
Q 1088 2444 1047 2230 
Q 1006 2016 1006 1763 
L 1006 0 
L 444 0 
z
" transform="scale(0.015625)"/>
       <path id="LiberationSans-2d" d="M 284 1450 
L 284 1950 
L 1847 1950 
L 1847 1450 
L 284 1450 
z
" transform="scale(0.015625)"/>
       <path id="LiberationSans-65" d="M 863 1572 
Q 863 1306 917 1082 
Q 972 859 1086 698 
Q 1200 538 1378 448 
Q 1556 359 1806 359 
Q 2172 359 2392 506 
Q 2613 653 2691 878 
L 3184 738 
Q 3131 597 3036 455 
Q 2941 313 2781 198 
Q 2622 84 2383 10 
Q 2144 -63 1806 -63 
Q 1056 -63 664 384 
Q 272 831 272 1713 
Q 272 2188 390 2517 
Q 509 2847 715 3053 
Q 922 3259 1197 3351 
Q 1472 3444 1784 3444 
Q 2209 3444 2495 3306 
Q 2781 3169 2954 2926 
Q 3128 2684 3201 2356 
Q 3275 2028 3275 1647 
L 3275 1572 
L 863 1572 
z
M 2694 2003 
Q 2647 2538 2422 2783 
Q 2197 3028 1775 3028 
Q 1634 3028 1479 2983 
Q 1325 2938 1194 2822 
Q 1063 2706 972 2507 
Q 881 2309 869 2003 
L 2694 2003 
z
" transform="scale(0.015625)"/>
       <path id="LiberationSans-6c" d="M 431 0 
L 431 4638 
L 994 4638 
L 994 0 
L 431 0 
z
" transform="scale(0.015625)"/>
       <path id="LiberationSans-69" d="M 428 4100 
L 428 4638 
L 991 4638 
L 991 4100 
L 428 4100 
z
M 428 0 
L 428 3381 
L 991 3381 
L 991 0 
L 428 0 
z
" transform="scale(0.015625)"/>
       <path id="LiberationSans-25" d="M 5463 1356 
Q 5463 966 5383 698 
Q 5303 431 5167 267 
Q 5031 103 4850 32 
Q 4669 -38 4463 -38 
Q 4256 -38 4076 32 
Q 3897 103 3764 265 
Q 3631 428 3554 695 
Q 3478 963 3478 1356 
Q 3478 1772 3553 2044 
Q 3628 2316 3762 2477 
Q 3897 2638 4080 2702 
Q 4263 2766 4475 2766 
Q 4681 2766 4861 2702 
Q 5041 2638 5173 2477 
Q 5306 2316 5384 2044 
Q 5463 1772 5463 1356 
z
M 1647 0 
L 1163 0 
L 4044 4403 
L 4534 4403 
L 1647 0 
z
M 1231 4441 
Q 1431 4441 1609 4377 
Q 1788 4313 1922 4153 
Q 2056 3994 2132 3725 
Q 2209 3456 2209 3047 
Q 2209 2653 2131 2384 
Q 2053 2116 1920 1948 
Q 1788 1781 1606 1709 
Q 1425 1638 1219 1638 
Q 1009 1638 828 1709 
Q 647 1781 514 1947 
Q 381 2113 304 2381 
Q 228 2650 228 3047 
Q 228 3456 304 3725 
Q 381 3994 515 4153 
Q 650 4313 834 4377 
Q 1019 4441 1231 4441 
z
M 5000 1356 
Q 5000 1666 4965 1870 
Q 4931 2075 4864 2197 
Q 4797 2319 4698 2369 
Q 4600 2419 4475 2419 
Q 4344 2419 4244 2367 
Q 4144 2316 4075 2194 
Q 4006 2072 3972 1867 
Q 3938 1663 3938 1356 
Q 3938 1059 3973 859 
Q 4009 659 4076 536 
Q 4144 413 4242 359 
Q 4341 306 4469 306 
Q 4591 306 4689 359 
Q 4788 413 4856 536 
Q 4925 659 4962 859 
Q 5000 1059 5000 1356 
z
M 1750 3047 
Q 1750 3353 1715 3556 
Q 1681 3759 1615 3881 
Q 1550 4003 1453 4053 
Q 1356 4103 1231 4103 
Q 1097 4103 995 4051 
Q 894 4000 825 3878 
Q 756 3756 722 3553 
Q 688 3350 688 3047 
Q 688 2750 723 2547 
Q 759 2344 826 2220 
Q 894 2097 994 2044 
Q 1094 1991 1225 1991 
Q 1344 1991 1441 2044 
Q 1538 2097 1606 2220 
Q 1675 2344 1712 2547 
Q 1750 2750 1750 3047 
z
" transform="scale(0.015625)"/>
       <path id="LiberationSans-2c" d="M 1203 684 
L 1203 159 
Q 1203 -6 1189 -142 
Q 1175 -278 1144 -395 
Q 1113 -513 1067 -616 
Q 1022 -719 959 -819 
L 575 -819 
Q 716 -616 792 -409 
Q 869 -203 869 0 
L 594 0 
L 594 684 
L 1203 684 
z
" transform="scale(0.015625)"/>
       <path id="LiberationSans-62" d="M 3291 1706 
Q 3291 -63 2047 -63 
Q 1663 -63 1408 76 
Q 1153 216 994 525 
L 988 525 
Q 988 444 983 356 
Q 978 269 973 194 
Q 969 119 964 66 
Q 959 13 956 0 
L 413 0 
Q 416 28 419 95 
Q 422 163 425 256 
Q 428 350 429 462 
Q 431 575 431 697 
L 431 4638 
L 994 4638 
L 994 3316 
Q 994 3222 992 3136 
Q 991 3050 988 2984 
Q 984 2906 981 2838 
L 994 2838 
Q 1150 3163 1408 3303 
Q 1666 3444 2047 3444 
Q 2688 3444 2989 3012 
Q 3291 2581 3291 1706 
z
M 2700 1688 
Q 2700 2038 2656 2288 
Q 2613 2538 2516 2698 
Q 2419 2859 2269 2934 
Q 2119 3009 1903 3009 
Q 1681 3009 1511 2937 
Q 1341 2866 1227 2706 
Q 1113 2547 1053 2287 
Q 994 2028 994 1653 
Q 994 1291 1053 1044 
Q 1113 797 1227 642 
Q 1341 488 1509 420 
Q 1678 353 1897 353 
Q 2103 353 2253 425 
Q 2403 497 2503 656 
Q 2603 816 2651 1070 
Q 2700 1325 2700 1688 
z
" transform="scale(0.015625)"/>
       <path id="LiberationSans-77" d="M 3669 0 
L 3016 0 
L 2475 2181 
Q 2450 2266 2423 2391 
Q 2397 2516 2372 2634 
Q 2341 2772 2313 2919 
Q 2284 2778 2253 2641 
Q 2228 2522 2198 2394 
Q 2169 2266 2144 2169 
L 1588 0 
L 938 0 
L -9 3381 
L 547 3381 
L 1119 1084 
Q 1141 1013 1162 908 
Q 1184 803 1206 703 
Q 1228 588 1253 466 
Q 1278 584 1306 697 
Q 1331 794 1356 894 
Q 1381 994 1400 1059 
L 2013 3381 
L 2616 3381 
L 3206 1059 
Q 3228 978 3253 875 
Q 3278 772 3300 681 
Q 3325 575 3350 466 
Q 3375 584 3400 697 
Q 3422 794 3445 898 
Q 3469 1003 3491 1084 
L 4088 3381 
L 4638 3381 
L 3669 0 
z
" transform="scale(0.015625)"/>
       <path id="LiberationSans-48" d="M 3503 0 
L 3503 2041 
L 1122 2041 
L 1122 0 
L 525 0 
L 525 4403 
L 1122 4403 
L 1122 2541 
L 3503 2541 
L 3503 4403 
L 4100 4403 
L 4100 0 
L 3503 0 
z
" transform="scale(0.015625)"/>
       <path id="LiberationSans-50" d="M 3931 3078 
Q 3931 2791 3836 2542 
Q 3741 2294 3552 2111 
Q 3363 1928 3078 1822 
Q 2794 1716 2416 1716 
L 1122 1716 
L 1122 0 
L 525 0 
L 525 4403 
L 2378 4403 
Q 2769 4403 3059 4308 
Q 3350 4213 3544 4039 
Q 3738 3866 3834 3620 
Q 3931 3375 3931 3078 
z
M 3331 3072 
Q 3331 3491 3075 3708 
Q 2819 3925 2306 3925 
L 1122 3925 
L 1122 2188 
L 2331 2188 
Q 2847 2188 3089 2416 
Q 3331 2644 3331 3072 
z
" transform="scale(0.015625)"/>
       <path id="LiberationSans-63" d="M 859 1706 
Q 859 1416 901 1172 
Q 944 928 1044 751 
Q 1144 575 1308 478 
Q 1472 381 1713 381 
Q 2013 381 2214 543 
Q 2416 706 2463 1044 
L 3031 1006 
Q 3003 797 2909 603 
Q 2816 409 2655 262 
Q 2494 116 2262 26 
Q 2031 -63 1728 -63 
Q 1331 -63 1053 71 
Q 775 206 601 442 
Q 428 678 350 998 
Q 272 1319 272 1694 
Q 272 2034 328 2295 
Q 384 2556 486 2751 
Q 588 2947 725 3080 
Q 863 3213 1023 3292 
Q 1184 3372 1362 3408 
Q 1541 3444 1722 3444 
Q 2006 3444 2228 3366 
Q 2450 3288 2611 3152 
Q 2772 3016 2872 2831 
Q 2972 2647 3013 2434 
L 2434 2391 
Q 2391 2672 2212 2837 
Q 2034 3003 1706 3003 
Q 1466 3003 1305 2923 
Q 1144 2844 1044 2683 
Q 944 2522 901 2278 
Q 859 2034 859 1706 
z
" transform="scale(0.015625)"/>
       <path id="LiberationSans-64" d="M 2566 544 
Q 2409 219 2151 78 
Q 1894 -63 1513 -63 
Q 872 -63 570 368 
Q 269 800 269 1675 
Q 269 3444 1513 3444 
Q 1897 3444 2153 3303 
Q 2409 3163 2566 2856 
L 2572 2856 
Q 2572 2888 2570 2955 
Q 2569 3022 2567 3095 
Q 2566 3169 2566 3234 
Q 2566 3300 2566 3328 
L 2566 4638 
L 3128 4638 
L 3128 697 
Q 3128 575 3129 462 
Q 3131 350 3134 256 
Q 3138 163 3141 95 
Q 3144 28 3147 0 
L 2609 0 
Q 2603 31 2598 89 
Q 2594 147 2589 222 
Q 2584 297 2581 380 
Q 2578 463 2578 544 
L 2566 544 
z
M 859 1694 
Q 859 1344 903 1094 
Q 947 844 1044 683 
Q 1141 522 1291 447 
Q 1441 372 1656 372 
Q 1878 372 2048 444 
Q 2219 516 2333 677 
Q 2447 838 2506 1097 
Q 2566 1356 2566 1731 
Q 2566 2091 2506 2339 
Q 2447 2588 2331 2741 
Q 2216 2894 2048 2961 
Q 1881 3028 1663 3028 
Q 1456 3028 1306 2956 
Q 1156 2884 1056 2725 
Q 956 2566 907 2311 
Q 859 2056 859 1694 
z
" transform="scale(0.015625)"/>
       <path id="LiberationSans-78" d="M 2503 0 
L 1594 1388 
L 678 0 
L 72 0 
L 1275 1738 
L 128 3381 
L 750 3381 
L 1594 2066 
L 2431 3381 
L 3059 3381 
L 1913 1744 
L 3131 0 
L 2503 0 
z
" transform="scale(0.015625)"/>
       <path id="LiberationSans-70" d="M 3291 1706 
Q 3291 1322 3228 997 
Q 3166 672 3020 437 
Q 2875 203 2636 70 
Q 2397 -63 2047 -63 
Q 1684 -63 1412 75 
Q 1141 213 997 525 
L 981 525 
Q 984 519 986 469 
Q 988 419 989 344 
Q 991 269 992 176 
Q 994 84 994 -6 
L 994 -1328 
L 431 -1328 
L 431 2691 
Q 431 2813 429 2925 
Q 428 3038 425 3130 
Q 422 3222 419 3287 
Q 416 3353 413 3381 
L 956 3381 
Q 959 3372 964 3315 
Q 969 3259 973 3179 
Q 978 3100 983 3009 
Q 988 2919 988 2838 
L 1000 2838 
Q 1078 3000 1178 3114 
Q 1278 3228 1406 3301 
Q 1534 3375 1692 3408 
Q 1850 3441 2047 3441 
Q 2397 3441 2636 3316 
Q 2875 3191 3020 2964 
Q 3166 2738 3228 2417 
Q 3291 2097 3291 1706 
z
M 2700 1694 
Q 2700 2006 2662 2250 
Q 2625 2494 2533 2662 
Q 2441 2831 2287 2918 
Q 2134 3006 1903 3006 
Q 1716 3006 1550 2953 
Q 1384 2900 1261 2750 
Q 1138 2600 1066 2336 
Q 994 2072 994 1650 
Q 994 1291 1053 1042 
Q 1113 794 1227 641 
Q 1341 488 1509 420 
Q 1678 353 1897 353 
Q 2131 353 2286 443 
Q 2441 534 2533 706 
Q 2625 878 2662 1126 
Q 2700 1375 2700 1694 
z
" transform="scale(0.015625)"/>
       <path id="LiberationSans-66" d="M 1128 2972 
L 1128 0 
L 566 0 
L 566 2972 
L 91 2972 
L 91 3381 
L 566 3381 
L 566 3763 
Q 566 3947 600 4105 
Q 634 4263 726 4380 
Q 819 4497 978 4564 
Q 1138 4631 1391 4631 
Q 1491 4631 1598 4622 
Q 1706 4613 1788 4594 
L 1788 4166 
Q 1734 4175 1664 4183 
Q 1594 4191 1538 4191 
Q 1413 4191 1333 4156 
Q 1253 4122 1208 4058 
Q 1163 3994 1145 3900 
Q 1128 3806 1128 3684 
L 1128 3381 
L 1788 3381 
L 1788 2972 
L 1128 2972 
z
" transform="scale(0.015625)"/>
      </defs>
      <use xlink:href="#LiberationSans-43"/>
      <use xlink:href="#LiberationSans-72" transform="translate(72.216797 0)"/>
      <use xlink:href="#LiberationSans-6f" transform="translate(105.517578 0)"/>
      <use xlink:href="#LiberationSans-73" transform="translate(161.132812 0)"/>
      <use xlink:href="#LiberationSans-73" transform="translate(211.132812 0)"/>
      <use xlink:href="#LiberationSans-2d" transform="translate(261.132812 0)"/>
      <use xlink:href="#LiberationSans-43" transform="translate(294.433594 0)"/>
      <use xlink:href="#LiberationSans-6f" transform="translate(366.650391 0)"/>
      <use xlink:href="#LiberationSans-72" transform="translate(422.265625 0)"/>
      <use xlink:href="#LiberationSans-72" transform="translate(455.566406 0)"/>
      <use xlink:href="#LiberationSans-65" transform="translate(488.867188 0)"/>
      <use xlink:href="#LiberationSans-6c" transform="translate(544.482422 0)"/>
      <use xlink:href="#LiberationSans-61" transform="translate(566.699219 0)"/>
      <use xlink:href="#LiberationSans-74" transform="translate(622.314453 0)"/>
      <use xlink:href="#LiberationSans-69" transform="translate(650.097656 0)"/>
      <use xlink:href="#LiberationSans-6f" transform="translate(672.314453 0)"/>
      <use xlink:href="#LiberationSans-6e" transform="translate(727.929688 0)"/>
      <use xlink:href="#LiberationSans-20" transform="translate(783.544922 0)"/>
      <use xlink:href="#LiberationSans-69" transform="translate(811.328125 0)"/>
      <use xlink:href="#LiberationSans-6e" transform="translate(833.544922 0)"/>
      <use xlink:href="#LiberationSans-20" transform="translate(889.160156 0)"/>
      <use xlink:href="#LiberationSans-25" transform="translate(916.943359 0)"/>
      <use xlink:href="#LiberationSans-2c" transform="translate(1005.859375 0)"/>
      <use xlink:href="#LiberationSans-20" transform="translate(1033.642578 0)"/>
      <use xlink:href="#LiberationSans-62" transform="translate(1061.425781 0)"/>
      <use xlink:href="#LiberationSans-65" transform="translate(1117.041016 0)"/>
      <use xlink:href="#LiberationSans-74" transform="translate(1172.65625 0)"/>
      <use xlink:href="#LiberationSans-77" transform="translate(1200.439453 0)"/>
      <use xlink:href="#LiberationSans-65" transform="translate(1272.65625 0)"/>
      <use xlink:href="#LiberationSans-65" transform="translate(1328.271484 0)"/>
      <use xlink:href="#LiberationSans-6e" transform="translate(1383.886719 0)"/>
      <use xlink:href="#LiberationSans-20" transform="translate(1439.501953 0)"/>
      <use xlink:href="#LiberationSans-43" transform="translate(1467.285156 0)"/>
      <use xlink:href="#LiberationSans-68" transform="translate(1539.501953 0)"/>
      <use xlink:href="#LiberationSans-61" transform="translate(1595.117188 0)"/>
      <use xlink:href="#LiberationSans-6e" transform="translate(1650.732422 0)"/>
      <use xlink:href="#LiberationSans-67" transform="translate(1706.347656 0)"/>
      <use xlink:href="#LiberationSans-65" transform="translate(1761.962891 0)"/>
      <use xlink:href="#LiberationSans-20" transform="translate(1817.578125 0)"/>
      <use xlink:href="#LiberationSans-69" transform="translate(1845.361328 0)"/>
      <use xlink:href="#LiberationSans-6e" transform="translate(1867.578125 0)"/>
      <use xlink:href="#LiberationSans-20" transform="translate(1923.193359 0)"/>
      <use xlink:href="#LiberationSans-48" transform="translate(1950.976562 0)"/>
      <use xlink:href="#LiberationSans-6f" transform="translate(2023.193359 0)"/>
      <use xlink:href="#LiberationSans-6d" transform="translate(2078.808594 0)"/>
      <use xlink:href="#LiberationSans-65" transform="translate(2162.109375 0)"/>
      <use xlink:href="#LiberationSans-20" transform="translate(2217.724609 0)"/>
      <use xlink:href="#LiberationSans-50" transform="translate(2245.507812 0)"/>
      <use xlink:href="#LiberationSans-72" transform="translate(2312.207031 0)"/>
      <use xlink:href="#LiberationSans-69" transform="translate(2345.507812 0)"/>
      <use xlink:href="#LiberationSans-63" transform="translate(2367.724609 0)"/>
      <use xlink:href="#LiberationSans-65" transform="translate(2417.724609 0)"/>
      <use xlink:href="#LiberationSans-20" transform="translate(2473.339844 0)"/>
      <use xlink:href="#LiberationSans-61" transform="translate(2501.123047 0)"/>
      <use xlink:href="#LiberationSans-6e" transform="translate(2556.738281 0)"/>
      <use xlink:href="#LiberationSans-64" transform="translate(2612.353516 0)"/>
      <use xlink:href="#LiberationSans-20" transform="translate(2667.96875 0)"/>
      <use xlink:href="#LiberationSans-31" transform="translate(2695.751953 0)"/>
      <use xlink:href="#LiberationSans-32" transform="translate(2751.367188 0)"/>
      <use xlink:href="#LiberationSans-2d" transform="translate(2806.982422 0)"/>
      <use xlink:href="#LiberationSans-6d" transform="translate(2840.283203 0)"/>
      <use xlink:href="#LiberationSans-6f" transform="translate(2923.583984 0)"/>
      <use xlink:href="#LiberationSans-6e" transform="translate(2979.199219 0)"/>
      <use xlink:href="#LiberationSans-74" transform="translate(3034.814453 0)"/>
      <use xlink:href="#LiberationSans-68" transform="translate(3062.597656 0)"/>
      <use xlink:href="#LiberationSans-20" transform="translate(3118.212891 0)"/>
      <use xlink:href="#LiberationSans-65" transform="translate(3145.996094 0)"/>
      <use xlink:href="#LiberationSans-78" transform="translate(3201.611328 0)"/>
      <use xlink:href="#LiberationSans-70" transform="translate(3251.611328 0)"/>
      <use xlink:href="#LiberationSans-65" transform="translate(3307.226562 0)"/>
      <use xlink:href="#LiberationSans-63" transform="translate(3362.841797 0)"/>
      <use xlink:href="#LiberationSans-74" transform="translate(3412.841797 0)"/>
      <use xlink:href="#LiberationSans-61" transform="translate(3440.625 0)"/>
      <use xlink:href="#LiberationSans-74" transform="translate(3496.240234 0)"/>
      <use xlink:href="#LiberationSans-69" transform="translate(3524.023438 0)"/>
      <use xlink:href="#LiberationSans-6f" transform="translate(3546.240234 0)"/>
      <use xlink:href="#LiberationSans-6e" transform="translate(3601.855469 0)"/>
      <use xlink:href="#LiberationSans-20" transform="translate(3657.470703 0)"/>
      <use xlink:href="#LiberationSans-6f" transform="translate(3685.253906 0)"/>
      <use xlink:href="#LiberationSans-66" transform="translate(3740.869141 0)"/>
      <use xlink:href="#LiberationSans-20" transform="translate(3768.652344 0)"/>
      <use xlink:href="#LiberationSans-63" transform="translate(3796.435547 0)"/>
      <use xlink:href="#LiberationSans-68" transform="translate(3846.435547 0)"/>
      <use xlink:href="#LiberationSans-61" transform="translate(3902.050781 0)"/>
      <use xlink:href="#LiberationSans-6e" transform="translate(3957.666016 0)"/>
      <use xlink:href="#LiberationSans-67" transform="translate(4013.28125 0)"/>
      <use xlink:href="#LiberationSans-65" transform="translate(4068.896484 0)"/>
      <use xlink:href="#LiberationSans-20" transform="translate(4124.511719 0)"/>
      <use xlink:href="#LiberationSans-69" transform="translate(4152.294922 0)"/>
      <use xlink:href="#LiberationSans-6e" transform="translate(4174.511719 0)"/>
      <use xlink:href="#LiberationSans-20" transform="translate(4230.126953 0)"/>
      <use xlink:href="#LiberationSans-48" transform="translate(4257.910156 0)"/>
      <use xlink:href="#LiberationSans-6f" transform="translate(4330.126953 0)"/>
      <use xlink:href="#LiberationSans-6d" transform="translate(4385.742188 0)"/>
      <use xlink:href="#LiberationSans-65" transform="translate(4469.042969 0)"/>
      <use xlink:href="#LiberationSans-20" transform="translate(4524.658203 0)"/>
      <use xlink:href="#LiberationSans-50" transform="translate(4552.441406 0)"/>
      <use xlink:href="#LiberationSans-72" transform="translate(4619.140625 0)"/>
      <use xlink:href="#LiberationSans-69" transform="translate(4652.441406 0)"/>
      <use xlink:href="#LiberationSans-63" transform="translate(4674.658203 0)"/>
      <use xlink:href="#LiberationSans-65" transform="translate(4724.658203 0)"/>
      <use xlink:href="#LiberationSans-73" transform="translate(4780.273438 0)"/>
     </g>
    </g>
   </g>
   <g id="patch_3">
    <path d="M -1041.926333 326.819263 
L -1006.273667 326.819263 
L -1006.273667 397.593803 
L -1041.926333 397.593803 
z
" clip-path="url(#p126798e5d3)" style="fill: #1f77b4; stroke: #000000; stroke-linejoin: miter"/>
   </g>
   <g id="patch_4">
    <path d="M -997.3605 326.819263 
L -961.707833 326.819263 
L -961.707833 409.90555 
L -997.3605 409.90555 
z
" clip-path="url(#p126798e5d3)" style="fill: #1f77b4; stroke: #000000; stroke-linejoin: miter"/>
   </g>
   <g id="patch_5">
    <path d="M -952.794667 326.819263 
L -917.142 326.819263 
L -917.142 422.157284 
L -952.794667 422.157284 
z
" clip-path="url(#p126798e5d3)" style="fill: #1f77b4; stroke: #000000; stroke-linejoin: miter"/>
   </g>
   <g id="patch_6">
    <path d="M -908.228833 326.819263 
L -872.576167 326.819263 
L -872.576167 434.104766 
L -908.228833 434.104766 
z
" clip-path="url(#p126798e5d3)" style="fill: #1f77b4; stroke: #000000; stroke-linejoin: miter"/>
   </g>
   <g id="patch_7">
    <path d="M -863.663 326.819263 
L -828.010333 326.819263 
L -828.010333 444.007297 
L -863.663 444.007297 
z
" clip-path="url(#p126798e5d3)" style="fill: #1f77b4; stroke: #000000; stroke-linejoin: miter"/>
   </g>
   <g id="patch_8">
    <path d="M -819.097167 326.819263 
L -783.4445 326.819263 
L -783.4445 450.399407 
L -819.097167 450.399407 
z
" clip-path="url(#p126798e5d3)" style="fill: #1f77b4; stroke: #000000; stroke-linejoin: miter"/>
   </g>
   <g id="patch_9">
    <path d="M -774.531333 326.819263 
L -738.878667 326.819263 
L -738.878667 451.855858 
L -774.531333 451.855858 
z
" clip-path="url(#p126798e5d3)" style="fill: #1f77b4; stroke: #000000; stroke-linejoin: miter"/>
   </g>
   <g id="patch_10">
    <path d="M -729.9655 326.819263 
L -694.312833 326.819263 
L -694.312833 449.123268 
L -729.9655 449.123268 
z
" clip-path="url(#p126798e5d3)" style="fill: #1f77b4; stroke: #000000; stroke-linejoin: miter"/>
   </g>
   <g id="patch_11">
    <path d="M -685.399667 326.819263 
L -649.747 326.819263 
L -649.747 442.695398 
L -685.399667 442.695398 
z
" clip-path="url(#p126798e5d3)" style="fill: #1f77b4; stroke: #000000; stroke-linejoin: miter"/>
   </g>
   <g id="patch_12">
    <path d="M -640.833833 326.819263 
L -605.181167 326.819263 
L -605.181167 433.367505 
L -640.833833 433.367505 
z
" clip-path="url(#p126798e5d3)" style="fill: #1f77b4; stroke: #000000; stroke-linejoin: miter"/>
   </g>
   <g id="patch_13">
    <path d="M -596.268 326.819263 
L -560.615333 326.819263 
L -560.615333 421.372097 
L -596.268 421.372097 
z
" clip-path="url(#p126798e5d3)" style="fill: #1f77b4; stroke: #000000; stroke-linejoin: miter"/>
   </g>
   <g id="patch_14">
    <path d="M -551.702167 326.819263 
L -516.0495 326.819263 
L -516.0495 407.184364 
L -551.702167 407.184364 
z
" clip-path="url(#p126798e5d3)" style="fill: #1f77b4; stroke: #000000; stroke-linejoin: miter"/>
   </g>
   <g id="patch_15">
    <path d="M -507.136333 326.819263 
L -471.483667 326.819263 
L -471.483667 391.034514 
L -507.136333 391.034514 
z
" clip-path="url(#p126798e5d3)" style="fill: #1f77b4; stroke: #000000; stroke-linejoin: miter"/>
   </g>
   <g id="patch_16">
    <path d="M -462.5705 326.819263 
L -426.917833 326.819263 
L -426.917833 372.645654 
L -462.5705 372.645654 
z
" clip-path="url(#p126798e5d3)" style="fill: #1f77b4; stroke: #000000; stroke-linejoin: miter"/>
   </g>
   <g id="patch_17">
    <path d="M -418.004667 326.819263 
L -382.352 326.819263 
L -382.352 352.276454 
L -418.004667 352.276454 
z
" clip-path="url(#p126798e5d3)" style="fill: #1f77b4; stroke: #000000; stroke-linejoin: miter"/>
   </g>
   <g id="patch_18">
    <path d="M -373.438833 326.819263 
L -337.786167 326.819263 
L -337.786167 330.177597 
L -373.438833 330.177597 
z
" clip-path="url(#p126798e5d3)" style="fill: #1f77b4; stroke: #000000; stroke-linejoin: miter"/>
   </g>
   <g id="patch_19">
    <path d="M -328.873 326.819263 
L -293.220333 326.819263 
L -293.220333 307.651805 
L -328.873 307.651805 
z
" clip-path="url(#p126798e5d3)" style="fill: #1f77b4; stroke: #000000; stroke-linejoin: miter"/>
   </g>
   <g id="patch_20">
    <path d="M -284.307167 326.819263 
L -248.6545 326.819263 
L -248.6545 286.43995 
L -284.307167 286.43995 
z
" clip-path="url(#p126798e5d3)" style="fill: #1f77b4; stroke: #000000; stroke-linejoin: miter"/>
   </g>
   <g id="patch_21">
    <path d="M -239.741333 326.819263 
L -204.088667 326.819263 
L -204.088667 266.973719 
L -239.741333 266.973719 
z
" clip-path="url(#p126798e5d3)" style="fill: #1f77b4; stroke: #000000; stroke-linejoin: miter"/>
   </g>
   <g id="patch_22">
    <path d="M -195.1755 326.819263 
L -159.522833 326.819263 
L -159.522833 248.565734 
L -195.1755 248.565734 
z
" clip-path="url(#p126798e5d3)" style="fill: #1f77b4; stroke: #000000; stroke-linejoin: miter"/>
   </g>
   <g id="patch_23">
    <path d="M -150.609667 326.819263 
L -114.957 326.819263 
L -114.957 229.007539 
L -150.609667 229.007539 
z
" clip-path="url(#p126798e5d3)" style="fill: #1f77b4; stroke: #000000; stroke-linejoin: miter"/>
   </g>
   <g id="patch_24">
    <path d="M -106.043833 326.819263 
L -70.391167 326.819263 
L -70.391167 206.358004 
L -106.043833 206.358004 
z
" clip-path="url(#p126798e5d3)" style="fill: #1f77b4; stroke: #000000; stroke-linejoin: miter"/>
   </g>
   <g id="patch_25">
    <path d="M -61.478 326.819263 
L -25.825333 326.819263 
L -25.825333 179.098401 
L -61.478 179.098401 
z
" clip-path="url(#p126798e5d3)" style="fill: #1f77b4; stroke: #000000; stroke-linejoin: miter"/>
   </g>
   <g id="patch_26">
    <path d="M -16.912167 326.819263 
L 18.7405 326.819263 
L 18.7405 148.0183 
L -16.912167 148.0183 
z
" clip-path="url(#p126798e5d3)" style="fill: #1f77b4; stroke: #000000; stroke-linejoin: miter"/>
   </g>
   <g id="patch_27">
    <path d="M 27.653667 326.819263 
L 63.306333 326.819263 
L 63.306333 115.343643 
L 27.653667 115.343643 
z
" clip-path="url(#p126798e5d3)" style="fill: #1f77b4; stroke: #000000; stroke-linejoin: miter"/>
   </g>
   <g id="patch_28">
    <path d="M 72.2195 326.819263 
L 107.872167 326.819263 
L 107.872167 84.729641 
L 72.2195 84.729641 
z
" clip-path="url(#p126798e5d3)" style="fill: #1f77b4; stroke: #000000; stroke-linejoin: miter"/>
   </g>
   <g id="patch_29">
    <path d="M 116.785333 326.819263 
L 152.438 326.819263 
L 152.438 60.659379 
L 116.785333 60.659379 
z
" clip-path="url(#p126798e5d3)" style="fill: #1f77b4; stroke: #000000; stroke-linejoin: miter"/>
   </g>
   <g id="patch_30">
    <path d="M 161.351167 326.819263 
L 197.003833 326.819263 
L 197.003833 48.717273 
L 161.351167 48.717273 
z
" clip-path="url(#p126798e5d3)" style="fill: #1f77b4; stroke: #000000; stroke-linejoin: miter"/>
   </g>
   <g id="patch_31">
    <path d="M 205.917 326.819263 
L 241.569667 326.819263 
L 241.569667 48.828039 
L 205.917 48.828039 
z
" clip-path="url(#p126798e5d3)" style="fill: #1f77b4; stroke: #000000; stroke-linejoin: miter"/>
   </g>
   <g id="patch_32">
    <path d="M 250.482833 326.819263 
L 286.1355 326.819263 
L 286.1355 58.746426 
L 250.482833 58.746426 
z
" clip-path="url(#p126798e5d3)" style="fill: #1f77b4; stroke: #000000; stroke-linejoin: miter"/>
   </g>
   <g id="patch_33">
    <path d="M 295.048667 326.819263 
L 330.701333 326.819263 
L 330.701333 74.683038 
L 295.048667 74.683038 
z
" clip-path="url(#p126798e5d3)" style="fill: #1f77b4; stroke: #000000; stroke-linejoin: miter"/>
   </g>
   <g id="patch_34">
    <path d="M 339.6145 326.819263 
L 375.267167 326.819263 
L 375.267167 94.498904 
L 339.6145 94.498904 
z
" clip-path="url(#p126798e5d3)" style="fill: #1f77b4; stroke: #000000; stroke-linejoin: miter"/>
   </g>
   <g id="patch_35">
    <path d="M 384.180333 326.819263 
L 419.833 326.819263 
L 419.833 117.083493 
L 384.180333 117.083493 
z
" clip-path="url(#p126798e5d3)" style="fill: #1f77b4; stroke: #000000; stroke-linejoin: miter"/>
   </g>
   <g id="patch_36">
    <path d="M 428.746167 326.819263 
L 464.398833 326.819263 
L 464.398833 143.377097 
L 428.746167 143.377097 
z
" clip-path="url(#p126798e5d3)" style="fill: #1f77b4; stroke: #000000; stroke-linejoin: miter"/>
   </g>
   <g id="patch_37">
    <path d="M 473.312 326.819263 
L 508.964667 326.819263 
L 508.964667 175.347209 
L 473.312 175.347209 
z
" clip-path="url(#p126798e5d3)" style="fill: #1f77b4; stroke: #000000; stroke-linejoin: miter"/>
   </g>
   <g id="patch_38">
    <path d="M 517.877833 326.819263 
L 553.5305 326.819263 
L 553.5305 211.747998 
L 517.877833 211.747998 
z
" clip-path="url(#p126798e5d3)" style="fill: #1f77b4; stroke: #000000; stroke-linejoin: miter"/>
   </g>
   <g id="patch_39">
    <path d="M 562.443667 326.819263 
L 598.096333 326.819263 
L 598.096333 253.321641 
L 562.443667 253.321641 
z
" clip-path="url(#p126798e5d3)" style="fill: #1f77b4; stroke: #000000; stroke-linejoin: miter"/>
   </g>
   <g id="patch_40">
    <path d="M 607.0095 326.819263 
L 642.662167 326.819263 
L 642.662167 297.247274 
L 607.0095 297.247274 
z
" clip-path="url(#p126798e5d3)" style="fill: #1f77b4; stroke: #000000; stroke-linejoin: miter"/>
   </g>
   <g id="patch_41">
    <path d="M 651.575333 326.819263 
L 687.228 326.819263 
L 687.228 340.563572 
L 651.575333 340.563572 
z
" clip-path="url(#p126798e5d3)" style="fill: #1f77b4; stroke: #000000; stroke-linejoin: miter"/>
   </g>
   <g id="patch_42">
    <path d="M 696.141167 326.819263 
L 731.793833 326.819263 
L 731.793833 376.748718 
L 696.141167 376.748718 
z
" clip-path="url(#p126798e5d3)" style="fill: #1f77b4; stroke: #000000; stroke-linejoin: miter"/>
   </g>
   <g id="patch_43">
    <path d="M 740.707 326.819263 
L 776.359667 326.819263 
L 776.359667 402.208992 
L 740.707 402.208992 
z
" clip-path="url(#p126798e5d3)" style="fill: #1f77b4; stroke: #000000; stroke-linejoin: miter"/>
   </g>
   <g id="patch_44">
    <path d="M 785.272833 326.819263 
L 820.9255 326.819263 
L 820.9255 418.834768 
L 785.272833 418.834768 
z
" clip-path="url(#p126798e5d3)" style="fill: #1f77b4; stroke: #000000; stroke-linejoin: miter"/>
   </g>
   <g id="patch_45">
    <path d="M 829.838667 326.819263 
L 865.491333 326.819263 
L 865.491333 430.723517 
L 829.838667 430.723517 
z
" clip-path="url(#p126798e5d3)" style="fill: #1f77b4; stroke: #000000; stroke-linejoin: miter"/>
   </g>
   <g id="patch_46">
    <path d="M 874.4045 326.819263 
L 910.057167 326.819263 
L 910.057167 442.733639 
L 874.4045 442.733639 
z
" clip-path="url(#p126798e5d3)" style="fill: #1f77b4; stroke: #000000; stroke-linejoin: miter"/>
   </g>
   <g id="patch_47">
    <path d="M 918.970333 326.819263 
L 954.623 326.819263 
L 954.623 457.572212 
L 918.970333 457.572212 
z
" clip-path="url(#p126798e5d3)" style="fill: #1f77b4; stroke: #000000; stroke-linejoin: miter"/>
   </g>
   <g id="patch_48">
    <path d="M 963.536167 326.819263 
L 999.188833 326.819263 
L 999.188833 474.831122 
L 963.536167 474.831122 
z
" clip-path="url(#p126798e5d3)" style="fill: #1f77b4; stroke: #000000; stroke-linejoin: miter"/>
   </g>
   <g id="patch_49">
    <path d="M 1008.102 326.819263 
L 1043.754667 326.819263 
L 1043.754667 491.823783 
L 1008.102 491.823783 
z
" clip-path="url(#p126798e5d3)" style="fill: #1f77b4; stroke: #000000; stroke-linejoin: miter"/>
   </g>
   <g id="patch_50">
    <path d="M 1052.667833 326.819263 
L 1088.3205 326.819263 
L 1088.3205 506.47523 
L 1052.667833 506.47523 
z
" clip-path="url(#p126798e5d3)" style="fill: #1f77b4; stroke: #000000; stroke-linejoin: miter"/>
   </g>
   <g id="patch_51">
    <path d="M 1097.233667 326.819263 
L 1132.886333 326.819263 
L 1132.886333 514.262727 
L 1097.233667 514.262727 
z
" clip-path="url(#p126798e5d3)" style="fill: #1f77b4; stroke: #000000; stroke-linejoin: miter"/>
   </g>
   <g id="line2d_33">
    <path d="M 45.48 326.819263 
L 847.665 326.819263 
" clip-path="url(#p126798e5d3)" style="fill: none; stroke: #000000; stroke-linecap: round"/>
   </g>
   <g id="patch_52">
    <path d="M 45.48 537.54 
L 45.48 25.44 
" style="fill: none; stroke: #cccccc; stroke-linejoin: miter; stroke-linecap: square"/>
   </g>
   <g id="patch_53">
    <path d="M 847.665 537.54 
L 847.665 25.44 
" style="fill: none; stroke: #cccccc; stroke-linejoin: miter; stroke-linecap: square"/>
   </g>
   <g id="patch_54">
    <path d="M 45.48 537.54 
L 847.665 537.54 
" style="fill: none; stroke: #cccccc; stroke-linejoin: miter; stroke-linecap: square"/>
   </g>
   <g id="patch_55">
    <path d="M 45.48 25.44 
L 847.665 25.44 
" style="fill: none; stroke: #cccccc; stroke-linejoin: miter; stroke-linecap: square"/>
   </g>
   <g id="text_19">
    <!-- Correlogram -->
    <g style="fill: #262626" transform="translate(413.232188 19.44) scale(0.12 -0.12)">
     <use xlink:href="#LiberationSans-43"/>
     <use xlink:href="#LiberationSans-6f" transform="translate(72.216797 0)"/>
     <use xlink:href="#LiberationSans-72" transform="translate(127.832031 0)"/>
     <use xlink:href="#LiberationSans-72" transform="translate(161.132812 0)"/>
     <use xlink:href="#LiberationSans-65" transform="translate(194.433594 0)"/>
     <use xlink:href="#LiberationSans-6c" transform="translate(250.048828 0)"/>
     <use xlink:href="#LiberationSans-6f" transform="translate(272.265625 0)"/>
     <use xlink:href="#LiberationSans-67" transform="translate(327.880859 0)"/>
     <use xlink:href="#LiberationSans-72" transform="translate(383.496094 0)"/>
     <use xlink:href="#LiberationSans-61" transform="translate(416.796875 0)"/>
     <use xlink:href="#LiberationSans-6d" transform="translate(472.412109 0)"/>
    </g>
   </g>
  </g>
 </g>
 <defs>
  <clipPath id="p126798e5d3">
   <rect x="45.48" y="25.44" width="802.185" height="512.1"/>
  </clipPath>
 </defs>
</svg>
