<?xml version="1.0" encoding="utf-8" standalone="no"?>
<!DOCTYPE svg PUBLIC "-//W3C//DTD SVG 1.1//EN"
  "http://www.w3.org/Graphics/SVG/1.1/DTD/svg11.dtd">
<svg xmlns:xlink="http://www.w3.org/1999/xlink" width="1008pt" height="432pt" viewBox="0 0 1008 432" xmlns="http://www.w3.org/2000/svg" version="1.1">
 <metadata>
  <rdf:RDF xmlns:dc="http://purl.org/dc/elements/1.1/" xmlns:cc="http://creativecommons.org/ns#" xmlns:rdf="http://www.w3.org/1999/02/22-rdf-syntax-ns#">
   <cc:Work>
    <dc:type rdf:resource="http://purl.org/dc/dcmitype/StillImage"/>
    <dc:date>2025-04-19T15:46:50.701610</dc:date>
    <dc:format>image/svg+xml</dc:format>
    <dc:creator>
     <cc:Agent>
      <dc:title>Matplotlib v3.10.0, https://matplotlib.org/</dc:title>
     </cc:Agent>
    </dc:creator>
   </cc:Work>
  </rdf:RDF>
 </metadata>
 <defs>
  <style type="text/css">*{stroke-linejoin: round; stroke-linecap: butt}</style>
 </defs>
 <g id="figure_1">
  <g id="patch_1">
   <path d="M 0 432 
L 1008 432 
L 1008 0 
L 0 0 
z
" style="fill: #ffffff"/>
  </g>
  <g id="axes_1">
   <g id="patch_2">
    <path d="M 39.45 407.62 
L 997.2 407.62 
L 997.2 30.16 
L 39.45 30.16 
z
" style="fill: #ffffff"/>
   </g>
   <g id="matplotlib.axis_1">
    <g id="xtick_1">
     <g id="line2d_1">
      <path d="M 54.746772 407.62 
L 54.746772 30.16 
" clip-path="url(#p0ac0f9d3ae)" style="fill: none; stroke: #cccccc; stroke-width: 0.8; stroke-linecap: round"/>
     </g>
     <g id="line2d_2"/>
     <g id="text_1">
      <!-- 2013 -->
      <g style="fill: #262626" transform="translate(43.624897 418.366875) scale(0.1 -0.1)">
       <defs>
        <path id="LiberationSans-32" d="M 322 0 
L 322 397 
Q 481 763 711 1042 
Q 941 1322 1194 1548 
Q 1447 1775 1695 1969 
Q 1944 2163 2144 2356 
Q 2344 2550 2467 2762 
Q 2591 2975 2591 3244 
Q 2591 3431 2534 3573 
Q 2478 3716 2372 3812 
Q 2266 3909 2117 3957 
Q 1969 4006 1788 4006 
Q 1619 4006 1470 3959 
Q 1322 3913 1206 3819 
Q 1091 3725 1017 3586 
Q 944 3447 922 3263 
L 347 3316 
Q 375 3553 478 3762 
Q 581 3972 762 4130 
Q 944 4288 1198 4378 
Q 1453 4469 1788 4469 
Q 2116 4469 2372 4391 
Q 2628 4313 2804 4159 
Q 2981 4006 3075 3781 
Q 3169 3556 3169 3263 
Q 3169 3041 3089 2841 
Q 3009 2641 2876 2459 
Q 2744 2278 2569 2109 
Q 2394 1941 2203 1780 
Q 2013 1619 1819 1461 
Q 1625 1303 1454 1143 
Q 1284 984 1150 820 
Q 1016 656 941 478 
L 3238 478 
L 3238 0 
L 322 0 
z
" transform="scale(0.015625)"/>
        <path id="LiberationSans-30" d="M 3309 2203 
Q 3309 1569 3189 1136 
Q 3069 703 2861 436 
Q 2653 169 2372 53 
Q 2091 -63 1772 -63 
Q 1450 -63 1172 53 
Q 894 169 689 434 
Q 484 700 367 1133 
Q 250 1566 250 2203 
Q 250 2869 367 3305 
Q 484 3741 690 4000 
Q 897 4259 1178 4364 
Q 1459 4469 1791 4469 
Q 2106 4469 2382 4364 
Q 2659 4259 2865 4000 
Q 3072 3741 3190 3305 
Q 3309 2869 3309 2203 
z
M 2738 2203 
Q 2738 2728 2675 3076 
Q 2613 3425 2491 3633 
Q 2369 3841 2192 3927 
Q 2016 4013 1791 4013 
Q 1553 4013 1372 3925 
Q 1191 3838 1067 3630 
Q 944 3422 881 3073 
Q 819 2725 819 2203 
Q 819 1697 883 1350 
Q 947 1003 1070 792 
Q 1194 581 1372 489 
Q 1550 397 1778 397 
Q 2000 397 2178 489 
Q 2356 581 2479 792 
Q 2603 1003 2670 1350 
Q 2738 1697 2738 2203 
z
" transform="scale(0.015625)"/>
        <path id="LiberationSans-31" d="M 488 0 
L 488 478 
L 1609 478 
L 1609 3866 
L 616 3156 
L 616 3688 
L 1656 4403 
L 2175 4403 
L 2175 478 
L 3247 478 
L 3247 0 
L 488 0 
z
" transform="scale(0.015625)"/>
        <path id="LiberationSans-33" d="M 3278 1216 
Q 3278 913 3179 675 
Q 3081 438 2892 273 
Q 2703 109 2423 23 
Q 2144 -63 1784 -63 
Q 1375 -63 1095 39 
Q 816 141 634 308 
Q 453 475 362 689 
Q 272 903 244 1131 
L 825 1184 
Q 850 1009 917 865 
Q 984 722 1100 619 
Q 1216 516 1384 459 
Q 1553 403 1784 403 
Q 2209 403 2451 612 
Q 2694 822 2694 1234 
Q 2694 1478 2586 1626 
Q 2478 1775 2317 1858 
Q 2156 1941 1967 1969 
Q 1778 1997 1619 1997 
L 1300 1997 
L 1300 2484 
L 1606 2484 
Q 1766 2484 1937 2517 
Q 2109 2550 2251 2636 
Q 2394 2722 2486 2869 
Q 2578 3016 2578 3244 
Q 2578 3597 2370 3801 
Q 2163 4006 1753 4006 
Q 1381 4006 1151 3815 
Q 922 3625 884 3278 
L 319 3322 
Q 353 3613 478 3828 
Q 603 4044 795 4186 
Q 988 4328 1234 4398 
Q 1481 4469 1759 4469 
Q 2128 4469 2393 4376 
Q 2659 4284 2828 4126 
Q 2997 3969 3076 3756 
Q 3156 3544 3156 3303 
Q 3156 3109 3103 2940 
Q 3050 2772 2937 2637 
Q 2825 2503 2651 2406 
Q 2478 2309 2234 2259 
L 2234 2247 
Q 2500 2219 2697 2126 
Q 2894 2034 3022 1896 
Q 3150 1759 3214 1584 
Q 3278 1409 3278 1216 
z
" transform="scale(0.015625)"/>
       </defs>
       <use xlink:href="#LiberationSans-32"/>
       <use xlink:href="#LiberationSans-30" transform="translate(55.615234 0)"/>
       <use xlink:href="#LiberationSans-31" transform="translate(111.230469 0)"/>
       <use xlink:href="#LiberationSans-33" transform="translate(166.845703 0)"/>
      </g>
     </g>
    </g>
    <g id="xtick_2">
     <g id="line2d_3">
      <path d="M 123.002542 407.62 
L 123.002542 30.16 
" clip-path="url(#p0ac0f9d3ae)" style="fill: none; stroke: #cccccc; stroke-width: 0.8; stroke-linecap: round"/>
     </g>
     <g id="line2d_4"/>
     <g id="text_2">
      <!-- 2014 -->
      <g style="fill: #262626" transform="translate(111.880667 418.366875) scale(0.1 -0.1)">
       <defs>
        <path id="LiberationSans-34" d="M 2753 997 
L 2753 0 
L 2222 0 
L 2222 997 
L 147 997 
L 147 1434 
L 2163 4403 
L 2753 4403 
L 2753 1441 
L 3372 1441 
L 3372 997 
L 2753 997 
z
M 2222 3769 
Q 2216 3753 2191 3708 
Q 2166 3663 2134 3606 
Q 2103 3550 2070 3492 
Q 2038 3434 2013 3397 
L 884 1734 
Q 869 1709 839 1668 
Q 809 1628 778 1586 
Q 747 1544 715 1503 
Q 684 1463 666 1441 
L 2222 1441 
L 2222 3769 
z
" transform="scale(0.015625)"/>
       </defs>
       <use xlink:href="#LiberationSans-32"/>
       <use xlink:href="#LiberationSans-30" transform="translate(55.615234 0)"/>
       <use xlink:href="#LiberationSans-31" transform="translate(111.230469 0)"/>
       <use xlink:href="#LiberationSans-34" transform="translate(166.845703 0)"/>
      </g>
     </g>
    </g>
    <g id="xtick_3">
     <g id="line2d_5">
      <path d="M 191.258312 407.62 
L 191.258312 30.16 
" clip-path="url(#p0ac0f9d3ae)" style="fill: none; stroke: #cccccc; stroke-width: 0.8; stroke-linecap: round"/>
     </g>
     <g id="line2d_6"/>
     <g id="text_3">
      <!-- 2015 -->
      <g style="fill: #262626" transform="translate(180.136437 418.366875) scale(0.1 -0.1)">
       <defs>
        <path id="LiberationSans-35" d="M 3291 1434 
Q 3291 1103 3191 828 
Q 3091 553 2894 354 
Q 2697 156 2405 46 
Q 2113 -63 1728 -63 
Q 1381 -63 1123 18 
Q 866 100 687 242 
Q 509 384 404 575 
Q 300 766 256 984 
L 825 1050 
Q 859 925 921 808 
Q 984 691 1092 598 
Q 1200 506 1358 451 
Q 1516 397 1741 397 
Q 1959 397 2137 464 
Q 2316 531 2442 662 
Q 2569 794 2637 984 
Q 2706 1175 2706 1422 
Q 2706 1625 2640 1795 
Q 2575 1966 2453 2089 
Q 2331 2213 2154 2281 
Q 1978 2350 1753 2350 
Q 1613 2350 1494 2325 
Q 1375 2300 1273 2256 
Q 1172 2213 1089 2155 
Q 1006 2097 934 2034 
L 384 2034 
L 531 4403 
L 3034 4403 
L 3034 3925 
L 1044 3925 
L 959 2528 
Q 1109 2644 1334 2726 
Q 1559 2809 1869 2809 
Q 2197 2809 2459 2709 
Q 2722 2609 2906 2426 
Q 3091 2244 3191 1991 
Q 3291 1738 3291 1434 
z
" transform="scale(0.015625)"/>
       </defs>
       <use xlink:href="#LiberationSans-32"/>
       <use xlink:href="#LiberationSans-30" transform="translate(55.615234 0)"/>
       <use xlink:href="#LiberationSans-31" transform="translate(111.230469 0)"/>
       <use xlink:href="#LiberationSans-35" transform="translate(166.845703 0)"/>
      </g>
     </g>
    </g>
    <g id="xtick_4">
     <g id="line2d_7">
      <path d="M 259.514082 407.62 
L 259.514082 30.16 
" clip-path="url(#p0ac0f9d3ae)" style="fill: none; stroke: #cccccc; stroke-width: 0.8; stroke-linecap: round"/>
     </g>
     <g id="line2d_8"/>
     <g id="text_4">
      <!-- 2016 -->
      <g style="fill: #262626" transform="translate(248.392207 418.366875) scale(0.1 -0.1)">
       <defs>
        <path id="LiberationSans-36" d="M 3278 1441 
Q 3278 1109 3186 832 
Q 3094 556 2914 357 
Q 2734 159 2468 48 
Q 2203 -63 1856 -63 
Q 1472 -63 1184 84 
Q 897 231 706 507 
Q 516 784 420 1186 
Q 325 1588 325 2100 
Q 325 2688 433 3131 
Q 541 3575 744 3872 
Q 947 4169 1239 4319 
Q 1531 4469 1900 4469 
Q 2125 4469 2322 4422 
Q 2519 4375 2680 4270 
Q 2841 4166 2962 3994 
Q 3084 3822 3156 3572 
L 2619 3475 
Q 2531 3759 2339 3886 
Q 2147 4013 1894 4013 
Q 1663 4013 1475 3903 
Q 1288 3794 1156 3576 
Q 1025 3359 954 3031 
Q 884 2703 884 2266 
Q 1038 2550 1316 2698 
Q 1594 2847 1953 2847 
Q 2253 2847 2497 2750 
Q 2741 2653 2914 2470 
Q 3088 2288 3183 2027 
Q 3278 1766 3278 1441 
z
M 2706 1416 
Q 2706 1644 2650 1828 
Q 2594 2013 2481 2142 
Q 2369 2272 2203 2342 
Q 2038 2413 1819 2413 
Q 1666 2413 1509 2367 
Q 1353 2322 1226 2220 
Q 1100 2119 1020 1953 
Q 941 1788 941 1550 
Q 941 1306 1003 1095 
Q 1066 884 1183 728 
Q 1300 572 1465 481 
Q 1631 391 1838 391 
Q 2041 391 2202 461 
Q 2363 531 2475 664 
Q 2588 797 2647 987 
Q 2706 1178 2706 1416 
z
" transform="scale(0.015625)"/>
       </defs>
       <use xlink:href="#LiberationSans-32"/>
       <use xlink:href="#LiberationSans-30" transform="translate(55.615234 0)"/>
       <use xlink:href="#LiberationSans-31" transform="translate(111.230469 0)"/>
       <use xlink:href="#LiberationSans-36" transform="translate(166.845703 0)"/>
      </g>
     </g>
    </g>
    <g id="xtick_5">
     <g id="line2d_9">
      <path d="M 327.956853 407.62 
L 327.956853 30.16 
" clip-path="url(#p0ac0f9d3ae)" style="fill: none; stroke: #cccccc; stroke-width: 0.8; stroke-linecap: round"/>
     </g>
     <g id="line2d_10"/>
     <g id="text_5">
      <!-- 2017 -->
      <g style="fill: #262626" transform="translate(316.834978 418.366875) scale(0.1 -0.1)">
       <defs>
        <path id="LiberationSans-37" d="M 3238 3947 
Q 2906 3441 2628 2973 
Q 2350 2506 2150 2032 
Q 1950 1559 1839 1061 
Q 1728 563 1728 0 
L 1141 0 
Q 1141 528 1266 1036 
Q 1391 1544 1603 2033 
Q 1816 2522 2097 2994 
Q 2378 3466 2694 3925 
L 328 3925 
L 328 4403 
L 3238 4403 
L 3238 3947 
z
" transform="scale(0.015625)"/>
       </defs>
       <use xlink:href="#LiberationSans-32"/>
       <use xlink:href="#LiberationSans-30" transform="translate(55.615234 0)"/>
       <use xlink:href="#LiberationSans-31" transform="translate(111.230469 0)"/>
       <use xlink:href="#LiberationSans-37" transform="translate(166.845703 0)"/>
      </g>
     </g>
    </g>
    <g id="xtick_6">
     <g id="line2d_11">
      <path d="M 396.212623 407.62 
L 396.212623 30.16 
" clip-path="url(#p0ac0f9d3ae)" style="fill: none; stroke: #cccccc; stroke-width: 0.8; stroke-linecap: round"/>
     </g>
     <g id="line2d_12"/>
     <g id="text_6">
      <!-- 2018 -->
      <g style="fill: #262626" transform="translate(385.090748 418.366875) scale(0.1 -0.1)">
       <defs>
        <path id="LiberationSans-38" d="M 3281 1228 
Q 3281 947 3192 711 
Q 3103 475 2920 303 
Q 2738 131 2453 34 
Q 2169 -63 1781 -63 
Q 1394 -63 1111 34 
Q 828 131 642 301 
Q 456 472 367 708 
Q 278 944 278 1222 
Q 278 1463 351 1650 
Q 425 1838 548 1973 
Q 672 2109 830 2192 
Q 988 2275 1156 2303 
L 1156 2316 
Q 972 2359 826 2456 
Q 681 2553 582 2689 
Q 484 2825 432 2990 
Q 381 3156 381 3341 
Q 381 3572 470 3776 
Q 559 3981 734 4136 
Q 909 4291 1168 4380 
Q 1428 4469 1769 4469 
Q 2128 4469 2392 4378 
Q 2656 4288 2829 4133 
Q 3003 3978 3087 3772 
Q 3172 3566 3172 3334 
Q 3172 3153 3120 2987 
Q 3069 2822 2970 2686 
Q 2872 2550 2726 2454 
Q 2581 2359 2391 2322 
L 2391 2309 
Q 2581 2278 2743 2195 
Q 2906 2113 3025 1977 
Q 3144 1841 3212 1653 
Q 3281 1466 3281 1228 
z
M 2588 3303 
Q 2588 3469 2545 3606 
Q 2503 3744 2406 3842 
Q 2309 3941 2153 3995 
Q 1997 4050 1769 4050 
Q 1547 4050 1394 3995 
Q 1241 3941 1142 3842 
Q 1044 3744 1000 3606 
Q 956 3469 956 3303 
Q 956 3172 990 3034 
Q 1025 2897 1115 2784 
Q 1206 2672 1365 2600 
Q 1525 2528 1775 2528 
Q 2041 2528 2202 2600 
Q 2363 2672 2448 2784 
Q 2534 2897 2561 3034 
Q 2588 3172 2588 3303 
z
M 2697 1281 
Q 2697 1441 2653 1589 
Q 2609 1738 2503 1852 
Q 2397 1966 2217 2036 
Q 2038 2106 1769 2106 
Q 1522 2106 1348 2036 
Q 1175 1966 1067 1850 
Q 959 1734 909 1582 
Q 859 1431 859 1269 
Q 859 1066 909 898 
Q 959 731 1068 611 
Q 1178 491 1356 425 
Q 1534 359 1788 359 
Q 2044 359 2219 425 
Q 2394 491 2500 611 
Q 2606 731 2651 901 
Q 2697 1072 2697 1281 
z
" transform="scale(0.015625)"/>
       </defs>
       <use xlink:href="#LiberationSans-32"/>
       <use xlink:href="#LiberationSans-30" transform="translate(55.615234 0)"/>
       <use xlink:href="#LiberationSans-31" transform="translate(111.230469 0)"/>
       <use xlink:href="#LiberationSans-38" transform="translate(166.845703 0)"/>
      </g>
     </g>
    </g>
    <g id="xtick_7">
     <g id="line2d_13">
      <path d="M 464.468393 407.62 
L 464.468393 30.16 
" clip-path="url(#p0ac0f9d3ae)" style="fill: none; stroke: #cccccc; stroke-width: 0.8; stroke-linecap: round"/>
     </g>
     <g id="line2d_14"/>
     <g id="text_7">
      <!-- 2019 -->
      <g style="fill: #262626" transform="translate(453.346518 418.366875) scale(0.1 -0.1)">
       <defs>
        <path id="LiberationSans-39" d="M 3256 2291 
Q 3256 1703 3145 1261 
Q 3034 819 2828 525 
Q 2622 231 2326 84 
Q 2031 -63 1663 -63 
Q 1409 -63 1206 -11 
Q 1003 41 843 150 
Q 684 259 571 434 
Q 459 609 391 856 
L 928 941 
Q 1016 656 1202 523 
Q 1388 391 1672 391 
Q 1900 391 2089 498 
Q 2278 606 2411 822 
Q 2544 1038 2619 1363 
Q 2694 1688 2700 2125 
Q 2634 1978 2520 1862 
Q 2406 1747 2261 1667 
Q 2116 1588 1947 1545 
Q 1778 1503 1606 1503 
Q 1306 1503 1064 1611 
Q 822 1719 653 1912 
Q 484 2106 392 2379 
Q 300 2653 300 2988 
Q 300 3328 398 3603 
Q 497 3878 684 4070 
Q 872 4263 1145 4366 
Q 1419 4469 1766 4469 
Q 2500 4469 2878 3925 
Q 3256 3381 3256 2291 
z
M 2644 2834 
Q 2644 3078 2586 3293 
Q 2528 3509 2414 3668 
Q 2300 3828 2133 3920 
Q 1966 4013 1747 4013 
Q 1544 4013 1381 3941 
Q 1219 3869 1106 3736 
Q 994 3603 933 3412 
Q 872 3222 872 2988 
Q 872 2766 926 2575 
Q 981 2384 1090 2245 
Q 1200 2106 1362 2026 
Q 1525 1947 1741 1947 
Q 1897 1947 2058 2000 
Q 2219 2053 2348 2162 
Q 2478 2272 2561 2439 
Q 2644 2606 2644 2834 
z
" transform="scale(0.015625)"/>
       </defs>
       <use xlink:href="#LiberationSans-32"/>
       <use xlink:href="#LiberationSans-30" transform="translate(55.615234 0)"/>
       <use xlink:href="#LiberationSans-31" transform="translate(111.230469 0)"/>
       <use xlink:href="#LiberationSans-39" transform="translate(166.845703 0)"/>
      </g>
     </g>
    </g>
    <g id="xtick_8">
     <g id="line2d_15">
      <path d="M 532.724162 407.62 
L 532.724162 30.16 
" clip-path="url(#p0ac0f9d3ae)" style="fill: none; stroke: #cccccc; stroke-width: 0.8; stroke-linecap: round"/>
     </g>
     <g id="line2d_16"/>
     <g id="text_8">
      <!-- 2020 -->
      <g style="fill: #262626" transform="translate(521.602287 418.366875) scale(0.1 -0.1)">
       <use xlink:href="#LiberationSans-32"/>
       <use xlink:href="#LiberationSans-30" transform="translate(55.615234 0)"/>
       <use xlink:href="#LiberationSans-32" transform="translate(111.230469 0)"/>
       <use xlink:href="#LiberationSans-30" transform="translate(166.845703 0)"/>
      </g>
     </g>
    </g>
    <g id="xtick_9">
     <g id="line2d_17">
      <path d="M 601.166934 407.62 
L 601.166934 30.16 
" clip-path="url(#p0ac0f9d3ae)" style="fill: none; stroke: #cccccc; stroke-width: 0.8; stroke-linecap: round"/>
     </g>
     <g id="line2d_18"/>
     <g id="text_9">
      <!-- 2021 -->
      <g style="fill: #262626" transform="translate(590.045059 418.366875) scale(0.1 -0.1)">
       <use xlink:href="#LiberationSans-32"/>
       <use xlink:href="#LiberationSans-30" transform="translate(55.615234 0)"/>
       <use xlink:href="#LiberationSans-32" transform="translate(111.230469 0)"/>
       <use xlink:href="#LiberationSans-31" transform="translate(166.845703 0)"/>
      </g>
     </g>
    </g>
    <g id="xtick_10">
     <g id="line2d_19">
      <path d="M 669.422704 407.62 
L 669.422704 30.16 
" clip-path="url(#p0ac0f9d3ae)" style="fill: none; stroke: #cccccc; stroke-width: 0.8; stroke-linecap: round"/>
     </g>
     <g id="line2d_20"/>
     <g id="text_10">
      <!-- 2022 -->
      <g style="fill: #262626" transform="translate(658.300829 418.366875) scale(0.1 -0.1)">
       <use xlink:href="#LiberationSans-32"/>
       <use xlink:href="#LiberationSans-30" transform="translate(55.615234 0)"/>
       <use xlink:href="#LiberationSans-32" transform="translate(111.230469 0)"/>
       <use xlink:href="#LiberationSans-32" transform="translate(166.845703 0)"/>
      </g>
     </g>
    </g>
    <g id="xtick_11">
     <g id="line2d_21">
      <path d="M 737.678474 407.62 
L 737.678474 30.16 
" clip-path="url(#p0ac0f9d3ae)" style="fill: none; stroke: #cccccc; stroke-width: 0.8; stroke-linecap: round"/>
     </g>
     <g id="line2d_22"/>
     <g id="text_11">
      <!-- 2023 -->
      <g style="fill: #262626" transform="translate(726.556599 418.366875) scale(0.1 -0.1)">
       <use xlink:href="#LiberationSans-32"/>
       <use xlink:href="#LiberationSans-30" transform="translate(55.615234 0)"/>
       <use xlink:href="#LiberationSans-32" transform="translate(111.230469 0)"/>
       <use xlink:href="#LiberationSans-33" transform="translate(166.845703 0)"/>
      </g>
     </g>
    </g>
    <g id="xtick_12">
     <g id="line2d_23">
      <path d="M 805.934243 407.62 
L 805.934243 30.16 
" clip-path="url(#p0ac0f9d3ae)" style="fill: none; stroke: #cccccc; stroke-width: 0.8; stroke-linecap: round"/>
     </g>
     <g id="line2d_24"/>
     <g id="text_12">
      <!-- 2024 -->
      <g style="fill: #262626" transform="translate(794.812368 418.366875) scale(0.1 -0.1)">
       <use xlink:href="#LiberationSans-32"/>
       <use xlink:href="#LiberationSans-30" transform="translate(55.615234 0)"/>
       <use xlink:href="#LiberationSans-32" transform="translate(111.230469 0)"/>
       <use xlink:href="#LiberationSans-34" transform="translate(166.845703 0)"/>
      </g>
     </g>
    </g>
    <g id="xtick_13">
     <g id="line2d_25">
      <path d="M 874.377015 407.62 
L 874.377015 30.16 
" clip-path="url(#p0ac0f9d3ae)" style="fill: none; stroke: #cccccc; stroke-width: 0.8; stroke-linecap: round"/>
     </g>
     <g id="line2d_26"/>
     <g id="text_13">
      <!-- 2025 -->
      <g style="fill: #262626" transform="translate(863.25514 418.366875) scale(0.1 -0.1)">
       <use xlink:href="#LiberationSans-32"/>
       <use xlink:href="#LiberationSans-30" transform="translate(55.615234 0)"/>
       <use xlink:href="#LiberationSans-32" transform="translate(111.230469 0)"/>
       <use xlink:href="#LiberationSans-35" transform="translate(166.845703 0)"/>
      </g>
     </g>
    </g>
    <g id="xtick_14">
     <g id="line2d_27">
      <path d="M 942.632785 407.62 
L 942.632785 30.16 
" clip-path="url(#p0ac0f9d3ae)" style="fill: none; stroke: #cccccc; stroke-width: 0.8; stroke-linecap: round"/>
     </g>
     <g id="line2d_28"/>
     <g id="text_14">
      <!-- 2026 -->
      <g style="fill: #262626" transform="translate(931.51091 418.366875) scale(0.1 -0.1)">
       <use xlink:href="#LiberationSans-32"/>
       <use xlink:href="#LiberationSans-30" transform="translate(55.615234 0)"/>
       <use xlink:href="#LiberationSans-32" transform="translate(111.230469 0)"/>
       <use xlink:href="#LiberationSans-36" transform="translate(166.845703 0)"/>
      </g>
     </g>
    </g>
   </g>
   <g id="matplotlib.axis_2">
    <g id="ytick_1">
     <g id="line2d_29">
      <path d="M 39.45 351.959023 
L 997.2 351.959023 
" clip-path="url(#p0ac0f9d3ae)" style="fill: none; stroke: #cccccc; stroke-width: 0.8; stroke-linecap: round"/>
     </g>
     <g id="line2d_30"/>
     <g id="text_15">
      <!-- 0 -->
      <g style="fill: #262626" transform="translate(30.389063 355.582461) scale(0.1 -0.1)">
       <use xlink:href="#LiberationSans-30"/>
      </g>
     </g>
    </g>
    <g id="ytick_2">
     <g id="line2d_31">
      <path d="M 39.45 269.015981 
L 997.2 269.015981 
" clip-path="url(#p0ac0f9d3ae)" style="fill: none; stroke: #cccccc; stroke-width: 0.8; stroke-linecap: round"/>
     </g>
     <g id="line2d_32"/>
     <g id="text_16">
      <!-- 5 -->
      <g style="fill: #262626" transform="translate(30.389063 272.639419) scale(0.1 -0.1)">
       <use xlink:href="#LiberationSans-35"/>
      </g>
     </g>
    </g>
    <g id="ytick_3">
     <g id="line2d_33">
      <path d="M 39.45 186.07294 
L 997.2 186.07294 
" clip-path="url(#p0ac0f9d3ae)" style="fill: none; stroke: #cccccc; stroke-width: 0.8; stroke-linecap: round"/>
     </g>
     <g id="line2d_34"/>
     <g id="text_17">
      <!-- 10 -->
      <g style="fill: #262626" transform="translate(24.828125 189.696377) scale(0.1 -0.1)">
       <use xlink:href="#LiberationSans-31"/>
       <use xlink:href="#LiberationSans-30" transform="translate(55.615234 0)"/>
      </g>
     </g>
    </g>
    <g id="ytick_4">
     <g id="line2d_35">
      <path d="M 39.45 103.129898 
L 997.2 103.129898 
" clip-path="url(#p0ac0f9d3ae)" style="fill: none; stroke: #cccccc; stroke-width: 0.8; stroke-linecap: round"/>
     </g>
     <g id="line2d_36"/>
     <g id="text_18">
      <!-- 15 -->
      <g style="fill: #262626" transform="translate(24.828125 106.753335) scale(0.1 -0.1)">
       <use xlink:href="#LiberationSans-31"/>
       <use xlink:href="#LiberationSans-35" transform="translate(55.615234 0)"/>
      </g>
     </g>
    </g>
    <g id="text_19">
     <!-- Inflation (%) -->
     <g style="fill: #262626" transform="translate(18.753125 245.565781) rotate(-90) scale(0.1 -0.1)">
      <defs>
       <path id="LiberationSans-49" d="M 591 0 
L 591 4403 
L 1188 4403 
L 1188 0 
L 591 0 
z
" transform="scale(0.015625)"/>
       <path id="LiberationSans-6e" d="M 2578 0 
L 2578 2144 
Q 2578 2391 2542 2556 
Q 2506 2722 2425 2823 
Q 2344 2925 2211 2967 
Q 2078 3009 1881 3009 
Q 1681 3009 1520 2939 
Q 1359 2869 1245 2736 
Q 1131 2603 1068 2408 
Q 1006 2213 1006 1959 
L 1006 0 
L 444 0 
L 444 2659 
Q 444 2766 442 2883 
Q 441 3000 437 3104 
Q 434 3209 431 3284 
Q 428 3359 425 3381 
L 956 3381 
Q 959 3366 962 3297 
Q 966 3228 970 3139 
Q 975 3050 978 2958 
Q 981 2866 981 2803 
L 991 2803 
Q 1072 2950 1169 3069 
Q 1266 3188 1394 3270 
Q 1522 3353 1687 3398 
Q 1853 3444 2072 3444 
Q 2353 3444 2556 3375 
Q 2759 3306 2890 3162 
Q 3022 3019 3083 2792 
Q 3144 2566 3144 2253 
L 3144 0 
L 2578 0 
z
" transform="scale(0.015625)"/>
       <path id="LiberationSans-66" d="M 1128 2972 
L 1128 0 
L 566 0 
L 566 2972 
L 91 2972 
L 91 3381 
L 566 3381 
L 566 3763 
Q 566 3947 600 4105 
Q 634 4263 726 4380 
Q 819 4497 978 4564 
Q 1138 4631 1391 4631 
Q 1491 4631 1598 4622 
Q 1706 4613 1788 4594 
L 1788 4166 
Q 1734 4175 1664 4183 
Q 1594 4191 1538 4191 
Q 1413 4191 1333 4156 
Q 1253 4122 1208 4058 
Q 1163 3994 1145 3900 
Q 1128 3806 1128 3684 
L 1128 3381 
L 1788 3381 
L 1788 2972 
L 1128 2972 
z
" transform="scale(0.015625)"/>
       <path id="LiberationSans-6c" d="M 431 0 
L 431 4638 
L 994 4638 
L 994 0 
L 431 0 
z
" transform="scale(0.015625)"/>
       <path id="LiberationSans-61" d="M 1294 -63 
Q 784 -63 528 206 
Q 272 475 272 944 
Q 272 1278 398 1492 
Q 525 1706 729 1828 
Q 934 1950 1196 1997 
Q 1459 2044 1731 2050 
L 2491 2063 
L 2491 2247 
Q 2491 2456 2447 2603 
Q 2403 2750 2312 2840 
Q 2222 2931 2086 2973 
Q 1950 3016 1766 3016 
Q 1603 3016 1472 2992 
Q 1341 2969 1244 2908 
Q 1147 2847 1087 2742 
Q 1028 2638 1009 2478 
L 422 2531 
Q 453 2731 540 2898 
Q 628 3066 789 3187 
Q 950 3309 1192 3376 
Q 1434 3444 1778 3444 
Q 2416 3444 2737 3151 
Q 3059 2859 3059 2306 
L 3059 850 
Q 3059 600 3125 473 
Q 3191 347 3375 347 
Q 3422 347 3469 353 
Q 3516 359 3559 369 
L 3559 19 
Q 3453 -6 3348 -18 
Q 3244 -31 3125 -31 
Q 2966 -31 2852 11 
Q 2738 53 2666 139 
Q 2594 225 2556 351 
Q 2519 478 2509 647 
L 2491 647 
Q 2400 484 2292 353 
Q 2184 222 2040 130 
Q 1897 38 1714 -12 
Q 1531 -63 1294 -63 
z
M 1422 359 
Q 1691 359 1892 457 
Q 2094 556 2226 709 
Q 2359 863 2425 1044 
Q 2491 1225 2491 1391 
L 2491 1669 
L 1875 1656 
Q 1669 1653 1483 1626 
Q 1297 1600 1156 1522 
Q 1016 1444 933 1303 
Q 850 1163 850 934 
Q 850 659 998 509 
Q 1147 359 1422 359 
z
" transform="scale(0.015625)"/>
       <path id="LiberationSans-74" d="M 1731 25 
Q 1603 -9 1470 -29 
Q 1338 -50 1163 -50 
Q 488 -50 488 716 
L 488 2972 
L 97 2972 
L 97 3381 
L 509 3381 
L 675 4138 
L 1050 4138 
L 1050 3381 
L 1675 3381 
L 1675 2972 
L 1050 2972 
L 1050 838 
Q 1050 594 1129 495 
Q 1209 397 1406 397 
Q 1488 397 1564 409 
Q 1641 422 1731 441 
L 1731 25 
z
" transform="scale(0.015625)"/>
       <path id="LiberationSans-69" d="M 428 4100 
L 428 4638 
L 991 4638 
L 991 4100 
L 428 4100 
z
M 428 0 
L 428 3381 
L 991 3381 
L 991 0 
L 428 0 
z
" transform="scale(0.015625)"/>
       <path id="LiberationSans-6f" d="M 3291 1694 
Q 3291 806 2900 371 
Q 2509 -63 1766 -63 
Q 1413 -63 1134 43 
Q 856 150 664 369 
Q 472 588 370 917 
Q 269 1247 269 1694 
Q 269 3444 1784 3444 
Q 2178 3444 2464 3334 
Q 2750 3225 2933 3006 
Q 3116 2788 3203 2459 
Q 3291 2131 3291 1694 
z
M 2700 1694 
Q 2700 2088 2639 2344 
Q 2578 2600 2461 2753 
Q 2344 2906 2175 2967 
Q 2006 3028 1794 3028 
Q 1578 3028 1404 2964 
Q 1231 2900 1109 2745 
Q 988 2591 923 2334 
Q 859 2078 859 1694 
Q 859 1300 928 1042 
Q 997 784 1117 631 
Q 1238 478 1402 415 
Q 1566 353 1759 353 
Q 1975 353 2150 414 
Q 2325 475 2447 628 
Q 2569 781 2634 1040 
Q 2700 1300 2700 1694 
z
" transform="scale(0.015625)"/>
       <path id="LiberationSans-20" transform="scale(0.015625)"/>
       <path id="LiberationSans-28" d="M 397 1663 
Q 397 2097 462 2494 
Q 528 2891 668 3256 
Q 809 3622 1028 3965 
Q 1247 4309 1550 4638 
L 2094 4638 
Q 1800 4309 1586 3964 
Q 1372 3619 1234 3251 
Q 1097 2884 1030 2487 
Q 963 2091 963 1656 
Q 963 1222 1030 825 
Q 1097 428 1234 59 
Q 1372 -309 1586 -653 
Q 1800 -997 2094 -1325 
L 1550 -1325 
Q 1247 -997 1028 -653 
Q 809 -309 668 56 
Q 528 422 462 817 
Q 397 1213 397 1650 
L 397 1663 
z
" transform="scale(0.015625)"/>
       <path id="LiberationSans-25" d="M 5463 1356 
Q 5463 966 5383 698 
Q 5303 431 5167 267 
Q 5031 103 4850 32 
Q 4669 -38 4463 -38 
Q 4256 -38 4076 32 
Q 3897 103 3764 265 
Q 3631 428 3554 695 
Q 3478 963 3478 1356 
Q 3478 1772 3553 2044 
Q 3628 2316 3762 2477 
Q 3897 2638 4080 2702 
Q 4263 2766 4475 2766 
Q 4681 2766 4861 2702 
Q 5041 2638 5173 2477 
Q 5306 2316 5384 2044 
Q 5463 1772 5463 1356 
z
M 1647 0 
L 1163 0 
L 4044 4403 
L 4534 4403 
L 1647 0 
z
M 1231 4441 
Q 1431 4441 1609 4377 
Q 1788 4313 1922 4153 
Q 2056 3994 2132 3725 
Q 2209 3456 2209 3047 
Q 2209 2653 2131 2384 
Q 2053 2116 1920 1948 
Q 1788 1781 1606 1709 
Q 1425 1638 1219 1638 
Q 1009 1638 828 1709 
Q 647 1781 514 1947 
Q 381 2113 304 2381 
Q 228 2650 228 3047 
Q 228 3456 304 3725 
Q 381 3994 515 4153 
Q 650 4313 834 4377 
Q 1019 4441 1231 4441 
z
M 5000 1356 
Q 5000 1666 4965 1870 
Q 4931 2075 4864 2197 
Q 4797 2319 4698 2369 
Q 4600 2419 4475 2419 
Q 4344 2419 4244 2367 
Q 4144 2316 4075 2194 
Q 4006 2072 3972 1867 
Q 3938 1663 3938 1356 
Q 3938 1059 3973 859 
Q 4009 659 4076 536 
Q 4144 413 4242 359 
Q 4341 306 4469 306 
Q 4591 306 4689 359 
Q 4788 413 4856 536 
Q 4925 659 4962 859 
Q 5000 1059 5000 1356 
z
M 1750 3047 
Q 1750 3353 1715 3556 
Q 1681 3759 1615 3881 
Q 1550 4003 1453 4053 
Q 1356 4103 1231 4103 
Q 1097 4103 995 4051 
Q 894 4000 825 3878 
Q 756 3756 722 3553 
Q 688 3350 688 3047 
Q 688 2750 723 2547 
Q 759 2344 826 2220 
Q 894 2097 994 2044 
Q 1094 1991 1225 1991 
Q 1344 1991 1441 2044 
Q 1538 2097 1606 2220 
Q 1675 2344 1712 2547 
Q 1750 2750 1750 3047 
z
" transform="scale(0.015625)"/>
       <path id="LiberationSans-29" d="M 1734 1650 
Q 1734 1213 1668 817 
Q 1603 422 1462 56 
Q 1322 -309 1103 -653 
Q 884 -997 581 -1325 
L 38 -1325 
Q 331 -997 545 -653 
Q 759 -309 896 59 
Q 1034 428 1101 825 
Q 1169 1222 1169 1656 
Q 1169 2091 1101 2487 
Q 1034 2884 896 3251 
Q 759 3619 545 3964 
Q 331 4309 38 4638 
L 581 4638 
Q 884 4309 1103 3965 
Q 1322 3622 1462 3256 
Q 1603 2891 1668 2494 
Q 1734 2097 1734 1663 
L 1734 1650 
z
" transform="scale(0.015625)"/>
      </defs>
      <use xlink:href="#LiberationSans-49"/>
      <use xlink:href="#LiberationSans-6e" transform="translate(27.783203 0)"/>
      <use xlink:href="#LiberationSans-66" transform="translate(83.398438 0)"/>
      <use xlink:href="#LiberationSans-6c" transform="translate(111.181641 0)"/>
      <use xlink:href="#LiberationSans-61" transform="translate(133.398438 0)"/>
      <use xlink:href="#LiberationSans-74" transform="translate(189.013672 0)"/>
      <use xlink:href="#LiberationSans-69" transform="translate(216.796875 0)"/>
      <use xlink:href="#LiberationSans-6f" transform="translate(239.013672 0)"/>
      <use xlink:href="#LiberationSans-6e" transform="translate(294.628906 0)"/>
      <use xlink:href="#LiberationSans-20" transform="translate(350.244141 0)"/>
      <use xlink:href="#LiberationSans-28" transform="translate(378.027344 0)"/>
      <use xlink:href="#LiberationSans-25" transform="translate(411.328125 0)"/>
      <use xlink:href="#LiberationSans-29" transform="translate(500.244141 0)"/>
     </g>
    </g>
   </g>
   <g id="line2d_37">
    <path d="M 82.984091 246.12825 
L 88.594154 239.500075 
L 94.39122 232.339654 
L 100.188285 227.088717 
L 105.798348 221.132304 
L 111.595414 218.812283 
L 117.205477 217.748967 
L 123.002542 219.105513 
L 128.799608 220.605233 
L 134.035667 222.446692 
L 139.832732 225.154437 
L 145.442795 228.505427 
L 151.239861 234.352632 
L 156.849924 238.927161 
L 162.646989 245.068446 
L 168.444055 250.446086 
L 174.054118 258.987881 
L 179.851183 264.000858 
L 185.461246 266.991202 
L 191.258312 267.377153 
L 202.291436 269.219916 
L 208.088502 269.437043 
L 213.698565 270.001081 
L 219.49563 269.832774 
L 225.105694 269.230592 
L 230.902759 266.271375 
L 236.699824 261.960377 
L 242.309888 255.143841 
L 248.106953 250.639306 
L 253.717016 247.343955 
L 265.311147 242.234825 
L 270.734208 242.417169 
L 276.531273 243.950328 
L 282.141337 246.291555 
L 287.938402 246.769406 
L 293.548465 249.495935 
L 299.345531 253.002105 
L 305.142596 256.888058 
L 310.752659 259.597943 
L 316.549725 260.343807 
L 322.159788 260.544687 
L 327.956853 261.46048 
L 333.753919 261.892427 
L 338.989978 259.489242 
L 344.787043 255.626104 
L 350.397106 252.990078 
L 356.194172 252.439334 
L 361.804235 251.222253 
L 367.6013 249.456519 
L 373.398366 247.956059 
L 379.008429 247.016198 
L 390.415558 245.537882 
L 396.212623 244.953101 
L 402.009688 245.089565 
L 407.245747 244.023876 
L 413.042813 244.796694 
L 418.652876 244.672732 
L 424.449941 246.574731 
L 430.060005 245.328025 
L 435.85707 244.633418 
L 441.654135 244.158602 
L 447.264199 247.410642 
L 453.061264 251.29364 
L 458.671327 255.185526 
L 464.468393 257.676464 
L 470.265458 258.68882 
L 475.501517 260.686505 
L 481.298582 262.648452 
L 486.908646 266.300953 
L 492.705711 268.036908 
L 498.315774 271.974671 
L 504.11284 275.061927 
L 509.909905 278.824615 
L 515.519968 278.237908 
L 521.317034 275.442936 
L 526.927097 271.573769 
L 532.724162 267.978722 
L 543.944289 263.741868 
L 549.741354 262.290182 
L 555.351418 262.911876 
L 561.148483 265.100055 
L 566.758546 265.104725 
L 572.555612 259.04103 
L 578.352677 244.374229 
L 589.759806 209.726936 
L 595.369869 194.486057 
L 601.166934 181.433572 
L 606.964 167.745541 
L 612.200059 153.594304 
L 617.997124 135.552864 
L 623.607187 110.262023 
L 629.404253 80.282317 
L 635.014316 55.774511 
L 640.811381 47.317273 
L 646.608447 56.004966 
L 652.21851 69.379612 
L 658.015575 81.378335 
L 663.625638 88.582211 
L 669.422704 87.203369 
L 675.219769 81.160237 
L 680.455828 70.875325 
L 686.252894 63.379014 
L 691.862957 63.044622 
L 697.660022 70.230468 
L 703.270086 86.104724 
L 709.067151 104.610565 
L 720.47428 142.443303 
L 726.271345 163.687909 
L 731.881408 187.645814 
L 737.678474 219.495495 
L 743.475539 253.602821 
L 748.711598 287.398836 
L 754.508663 314.792097 
L 760.118727 334.667082 
L 765.915792 347.983117 
L 771.525855 351.328101 
L 777.322921 345.318713 
L 783.119986 333.276425 
L 788.730049 322.877456 
L 794.527115 314.785211 
L 800.137178 308.167649 
L 811.731309 291.863661 
L 817.15437 284.064586 
L 822.951435 279.976995 
L 828.561498 281.310099 
L 834.358564 288.380434 
L 839.968627 296.40011 
L 845.765692 303.266604 
L 851.562758 307.150314 
L 857.172821 308.853036 
L 862.969886 309.695529 
L 868.57995 308.405799 
L 874.377015 307.533314 
L 880.17408 309.194763 
L 885.410139 317.85632 
L 885.410139 317.85632 
" clip-path="url(#p0ac0f9d3ae)" style="fill: none; stroke: #1f77b4; stroke-width: 2; stroke-linecap: round"/>
   </g>
   <g id="line2d_38">
    <path d="M 151.239861 259.849774 
L 156.849924 261.810893 
L 162.646989 257.724237 
L 168.444055 262.778531 
L 174.054118 264.064629 
L 179.851183 269.426878 
L 185.461246 265.239527 
L 191.258312 262.293114 
L 197.055377 267.327934 
L 202.291436 268.313488 
L 208.088502 270.318832 
L 213.698565 269.424299 
L 219.49563 267.953747 
L 225.105694 269.631155 
L 230.902759 272.459494 
L 236.699824 270.409948 
L 242.309888 273.133051 
L 248.106953 271.089383 
L 253.717016 275.068581 
L 259.514082 270.109287 
L 265.311147 277.773277 
L 270.734208 272.826655 
L 276.531273 272.198889 
L 282.141337 270.922837 
L 287.938402 272.535232 
L 293.548465 273.885623 
L 299.345531 271.295662 
L 305.142596 270.573877 
L 310.752659 273.022888 
L 316.549725 275.276734 
L 322.159788 275.930604 
L 327.956853 277.92784 
L 333.753919 277.103216 
L 338.989978 271.204151 
L 344.787043 272.711809 
L 350.397106 276.562357 
L 356.194172 273.263053 
L 361.804235 270.439263 
L 367.6013 274.545441 
L 373.398366 273.634819 
L 379.008429 272.232317 
L 384.805494 275.343432 
L 390.415558 269.87386 
L 396.212623 269.239006 
L 402.009688 271.348391 
L 407.245747 271.1618 
L 413.042813 269.278659 
L 418.652876 270.492514 
L 424.449941 269.603739 
L 430.060005 271.327389 
L 441.654135 273.007598 
L 447.264199 273.654475 
L 453.061264 271.341564 
L 458.671327 273.185361 
L 464.468393 271.941993 
L 470.265458 272.450445 
L 475.501517 273.28358 
L 481.298582 271.057 
L 486.908646 270.101424 
L 492.705711 265.311912 
L 498.315774 267.312478 
L 504.11284 270.242706 
L 509.909905 270.512225 
L 515.519968 272.183551 
L 521.317034 273.781716 
L 526.927097 281.183124 
L 532.724162 277.27613 
L 538.521228 275.905426 
L 543.944289 272.226344 
L 549.741354 273.164961 
L 555.351418 274.721978 
L 561.148483 279.55835 
L 566.758546 275.001962 
L 572.555612 285.572277 
L 578.352677 277.295668 
L 583.96274 275.433417 
L 589.759806 279.280129 
L 595.369869 277.547754 
L 601.166934 277.344963 
L 606.964 275.653024 
L 612.200059 313.244156 
L 617.997124 390.462727 
L 623.607187 340.966937 
L 629.404253 302.340313 
L 635.014316 304.641094 
L 640.811381 278.099568 
L 646.608447 274.228588 
L 652.21851 273.342494 
L 658.015575 271.359259 
L 663.625638 271.884036 
L 675.219769 259.85513 
L 680.455828 257.509954 
L 686.252894 225.050725 
L 691.862957 189.224246 
L 697.660022 201.409005 
L 703.270086 215.509376 
L 709.067151 226.817454 
L 714.864216 253.016918 
L 720.47428 247.698151 
L 726.271345 252.924837 
L 731.881408 241.150168 
L 737.678474 228.300346 
L 743.475539 218.917854 
L 748.711598 216.46738 
L 754.508663 218.811512 
L 760.118727 233.833215 
L 765.915792 263.481649 
L 771.525855 270.208637 
L 777.322921 284.176111 
L 783.119986 304.916606 
L 788.730049 308.070768 
L 794.527115 334.178823 
L 800.137178 312.919206 
L 805.934243 332.420888 
L 811.731309 307.305457 
L 817.15437 304.867417 
L 822.951435 281.973743 
L 828.561498 283.640718 
L 834.358564 278.698312 
L 839.968627 277.634179 
L 845.765692 274.92143 
L 851.562758 271.7754 
L 857.172821 270.6049 
L 862.969886 275.684269 
L 868.57995 273.366683 
L 874.377015 273.816386 
L 880.17408 273.956774 
L 885.410139 267.771325 
L 891.207205 268.8219 
L 896.817268 267.775865 
L 902.614333 273.444914 
L 908.224397 271.065171 
L 914.021462 270.305369 
L 919.818527 272.074068 
L 925.428591 272.523106 
L 931.225656 274.992652 
L 936.835719 274.738969 
L 942.632785 274.048001 
L 948.42985 266.839828 
L 953.665909 270.072465 
L 953.665909 270.072465 
" clip-path="url(#p0ac0f9d3ae)" style="fill: none; stroke-dasharray: 7.4,3.2; stroke-dashoffset: 0; stroke: #ff7f0e; stroke-width: 2"/>
   </g>
   <g id="patch_3">
    <path d="M 39.45 407.62 
L 39.45 30.16 
" style="fill: none; stroke: #cccccc; stroke-linejoin: miter; stroke-linecap: square"/>
   </g>
   <g id="patch_4">
    <path d="M 997.2 407.62 
L 997.2 30.16 
" style="fill: none; stroke: #cccccc; stroke-linejoin: miter; stroke-linecap: square"/>
   </g>
   <g id="patch_5">
    <path d="M 39.45 407.62 
L 997.2 407.62 
" style="fill: none; stroke: #cccccc; stroke-linejoin: miter; stroke-linecap: square"/>
   </g>
   <g id="patch_6">
    <path d="M 39.45 30.16 
L 997.2 30.16 
" style="fill: none; stroke: #cccccc; stroke-linejoin: miter; stroke-linecap: square"/>
   </g>
   <g id="text_20">
    <!-- Home‑Price Changes: Realised vs One‑Year‑Ahead Expectations -->
    <g style="fill: #262626" transform="translate(315.096406 20.16) scale(0.14 -0.14)">
     <defs>
      <path id="LiberationSans-48" d="M 3503 0 
L 3503 2041 
L 1122 2041 
L 1122 0 
L 525 0 
L 525 4403 
L 1122 4403 
L 1122 2541 
L 3503 2541 
L 3503 4403 
L 4100 4403 
L 4100 0 
L 3503 0 
z
" transform="scale(0.015625)"/>
      <path id="LiberationSans-6d" d="M 2400 0 
L 2400 2144 
Q 2400 2391 2369 2556 
Q 2338 2722 2264 2823 
Q 2191 2925 2072 2967 
Q 1953 3009 1781 3009 
Q 1603 3009 1459 2939 
Q 1316 2869 1214 2736 
Q 1113 2603 1058 2408 
Q 1003 2213 1003 1959 
L 1003 0 
L 444 0 
L 444 2659 
Q 444 2766 442 2883 
Q 441 3000 437 3104 
Q 434 3209 431 3284 
Q 428 3359 425 3381 
L 956 3381 
Q 959 3366 962 3297 
Q 966 3228 970 3139 
Q 975 3050 978 2958 
Q 981 2866 981 2803 
L 991 2803 
Q 1066 2950 1153 3069 
Q 1241 3188 1358 3270 
Q 1475 3353 1626 3398 
Q 1778 3444 1978 3444 
Q 2363 3444 2586 3291 
Q 2809 3138 2897 2803 
L 2906 2803 
Q 2981 2950 3075 3069 
Q 3169 3188 3294 3270 
Q 3419 3353 3575 3398 
Q 3731 3444 3931 3444 
Q 4188 3444 4373 3375 
Q 4559 3306 4678 3162 
Q 4797 3019 4853 2792 
Q 4909 2566 4909 2253 
L 4909 0 
L 4353 0 
L 4353 2144 
Q 4353 2391 4322 2556 
Q 4291 2722 4217 2823 
Q 4144 2925 4025 2967 
Q 3906 3009 3734 3009 
Q 3556 3009 3412 2942 
Q 3269 2875 3167 2744 
Q 3066 2613 3011 2416 
Q 2956 2219 2956 1959 
L 2956 0 
L 2400 0 
z
" transform="scale(0.015625)"/>
      <path id="LiberationSans-65" d="M 863 1572 
Q 863 1306 917 1082 
Q 972 859 1086 698 
Q 1200 538 1378 448 
Q 1556 359 1806 359 
Q 2172 359 2392 506 
Q 2613 653 2691 878 
L 3184 738 
Q 3131 597 3036 455 
Q 2941 313 2781 198 
Q 2622 84 2383 10 
Q 2144 -63 1806 -63 
Q 1056 -63 664 384 
Q 272 831 272 1713 
Q 272 2188 390 2517 
Q 509 2847 715 3053 
Q 922 3259 1197 3351 
Q 1472 3444 1784 3444 
Q 2209 3444 2495 3306 
Q 2781 3169 2954 2926 
Q 3128 2684 3201 2356 
Q 3275 2028 3275 1647 
L 3275 1572 
L 863 1572 
z
M 2694 2003 
Q 2647 2538 2422 2783 
Q 2197 3028 1775 3028 
Q 1634 3028 1479 2983 
Q 1325 2938 1194 2822 
Q 1063 2706 972 2507 
Q 881 2309 869 2003 
L 2694 2003 
z
" transform="scale(0.015625)"/>
      <path id="LiberationSans-2011" d="M 284 1450 
L 284 1950 
L 1847 1950 
L 1847 1450 
L 284 1450 
z
" transform="scale(0.015625)"/>
      <path id="LiberationSans-50" d="M 3931 3078 
Q 3931 2791 3836 2542 
Q 3741 2294 3552 2111 
Q 3363 1928 3078 1822 
Q 2794 1716 2416 1716 
L 1122 1716 
L 1122 0 
L 525 0 
L 525 4403 
L 2378 4403 
Q 2769 4403 3059 4308 
Q 3350 4213 3544 4039 
Q 3738 3866 3834 3620 
Q 3931 3375 3931 3078 
z
M 3331 3072 
Q 3331 3491 3075 3708 
Q 2819 3925 2306 3925 
L 1122 3925 
L 1122 2188 
L 2331 2188 
Q 2847 2188 3089 2416 
Q 3331 2644 3331 3072 
z
" transform="scale(0.015625)"/>
      <path id="LiberationSans-72" d="M 444 0 
L 444 2594 
Q 444 2700 442 2811 
Q 441 2922 437 3025 
Q 434 3128 431 3218 
Q 428 3309 425 3381 
L 956 3381 
Q 959 3309 964 3217 
Q 969 3125 973 3028 
Q 978 2931 979 2842 
Q 981 2753 981 2691 
L 994 2691 
Q 1053 2884 1120 3026 
Q 1188 3169 1278 3261 
Q 1369 3353 1494 3398 
Q 1619 3444 1797 3444 
Q 1866 3444 1928 3433 
Q 1991 3422 2025 3413 
L 2025 2897 
Q 1969 2913 1894 2920 
Q 1819 2928 1725 2928 
Q 1531 2928 1395 2840 
Q 1259 2753 1173 2598 
Q 1088 2444 1047 2230 
Q 1006 2016 1006 1763 
L 1006 0 
L 444 0 
z
" transform="scale(0.015625)"/>
      <path id="LiberationSans-63" d="M 859 1706 
Q 859 1416 901 1172 
Q 944 928 1044 751 
Q 1144 575 1308 478 
Q 1472 381 1713 381 
Q 2013 381 2214 543 
Q 2416 706 2463 1044 
L 3031 1006 
Q 3003 797 2909 603 
Q 2816 409 2655 262 
Q 2494 116 2262 26 
Q 2031 -63 1728 -63 
Q 1331 -63 1053 71 
Q 775 206 601 442 
Q 428 678 350 998 
Q 272 1319 272 1694 
Q 272 2034 328 2295 
Q 384 2556 486 2751 
Q 588 2947 725 3080 
Q 863 3213 1023 3292 
Q 1184 3372 1362 3408 
Q 1541 3444 1722 3444 
Q 2006 3444 2228 3366 
Q 2450 3288 2611 3152 
Q 2772 3016 2872 2831 
Q 2972 2647 3013 2434 
L 2434 2391 
Q 2391 2672 2212 2837 
Q 2034 3003 1706 3003 
Q 1466 3003 1305 2923 
Q 1144 2844 1044 2683 
Q 944 2522 901 2278 
Q 859 2034 859 1706 
z
" transform="scale(0.015625)"/>
      <path id="LiberationSans-43" d="M 2475 3981 
Q 2100 3981 1811 3856 
Q 1522 3731 1326 3500 
Q 1131 3269 1031 2944 
Q 931 2619 931 2222 
Q 931 1825 1039 1495 
Q 1147 1166 1348 928 
Q 1550 691 1842 559 
Q 2134 428 2500 428 
Q 2756 428 2967 495 
Q 3178 563 3348 684 
Q 3519 806 3653 973 
Q 3788 1141 3891 1344 
L 4378 1100 
Q 4259 853 4084 640 
Q 3909 428 3673 272 
Q 3438 116 3139 26 
Q 2841 -63 2472 -63 
Q 1938 -63 1536 107 
Q 1134 278 864 583 
Q 594 888 459 1306 
Q 325 1725 325 2222 
Q 325 2738 467 3153 
Q 609 3569 882 3861 
Q 1156 4153 1556 4311 
Q 1956 4469 2469 4469 
Q 3172 4469 3644 4194 
Q 4116 3919 4338 3378 
L 3772 3191 
Q 3709 3347 3603 3489 
Q 3497 3631 3337 3740 
Q 3178 3850 2964 3915 
Q 2750 3981 2475 3981 
z
" transform="scale(0.015625)"/>
      <path id="LiberationSans-68" d="M 991 2803 
Q 1084 2975 1193 3095 
Q 1303 3216 1434 3294 
Q 1566 3372 1722 3408 
Q 1878 3444 2072 3444 
Q 2397 3444 2605 3356 
Q 2813 3269 2933 3111 
Q 3053 2953 3098 2734 
Q 3144 2516 3144 2253 
L 3144 0 
L 2578 0 
L 2578 2144 
Q 2578 2359 2551 2521 
Q 2525 2684 2450 2792 
Q 2375 2900 2237 2954 
Q 2100 3009 1881 3009 
Q 1681 3009 1520 2937 
Q 1359 2866 1245 2734 
Q 1131 2603 1068 2415 
Q 1006 2228 1006 1994 
L 1006 0 
L 444 0 
L 444 4638 
L 1006 4638 
L 1006 3431 
Q 1006 3328 1003 3225 
Q 1000 3122 995 3034 
Q 991 2947 987 2886 
Q 984 2825 981 2803 
L 991 2803 
z
" transform="scale(0.015625)"/>
      <path id="LiberationSans-67" d="M 1713 -1328 
Q 1422 -1328 1197 -1268 
Q 972 -1209 812 -1098 
Q 653 -988 553 -834 
Q 453 -681 409 -494 
L 975 -413 
Q 1031 -647 1223 -773 
Q 1416 -900 1728 -900 
Q 1919 -900 2075 -847 
Q 2231 -794 2340 -676 
Q 2450 -559 2509 -371 
Q 2569 -184 2569 84 
L 2569 628 
L 2563 628 
Q 2500 500 2408 383 
Q 2316 266 2183 175 
Q 2050 84 1875 29 
Q 1700 -25 1475 -25 
Q 1153 -25 923 83 
Q 694 191 548 406 
Q 403 622 336 942 
Q 269 1263 269 1684 
Q 269 2091 336 2416 
Q 403 2741 554 2967 
Q 706 3194 948 3314 
Q 1191 3434 1538 3434 
Q 1897 3434 2161 3270 
Q 2425 3106 2569 2803 
L 2575 2803 
Q 2575 2881 2579 2978 
Q 2584 3075 2589 3161 
Q 2594 3247 2600 3309 
Q 2606 3372 2613 3381 
L 3147 3381 
Q 3144 3353 3141 3286 
Q 3138 3219 3134 3125 
Q 3131 3031 3129 2917 
Q 3128 2803 3128 2681 
L 3128 97 
Q 3128 -613 2779 -970 
Q 2431 -1328 1713 -1328 
z
M 2569 1691 
Q 2569 2044 2492 2295 
Q 2416 2547 2291 2706 
Q 2166 2866 2005 2941 
Q 1844 3016 1675 3016 
Q 1459 3016 1304 2941 
Q 1150 2866 1048 2705 
Q 947 2544 898 2292 
Q 850 2041 850 1691 
Q 850 1325 898 1076 
Q 947 828 1047 675 
Q 1147 522 1300 456 
Q 1453 391 1666 391 
Q 1834 391 1995 462 
Q 2156 534 2284 690 
Q 2413 847 2491 1094 
Q 2569 1341 2569 1691 
z
" transform="scale(0.015625)"/>
      <path id="LiberationSans-73" d="M 2969 934 
Q 2969 697 2876 511 
Q 2784 325 2609 198 
Q 2434 72 2179 4 
Q 1925 -63 1597 -63 
Q 1303 -63 1067 -17 
Q 831 28 653 128 
Q 475 228 354 392 
Q 234 556 178 794 
L 675 891 
Q 747 619 972 492 
Q 1197 366 1597 366 
Q 1778 366 1929 391 
Q 2081 416 2190 477 
Q 2300 538 2361 639 
Q 2422 741 2422 891 
Q 2422 1044 2350 1142 
Q 2278 1241 2150 1306 
Q 2022 1372 1839 1420 
Q 1656 1469 1438 1528 
Q 1234 1581 1034 1647 
Q 834 1713 673 1820 
Q 513 1928 413 2087 
Q 313 2247 313 2488 
Q 313 2950 642 3192 
Q 972 3434 1603 3434 
Q 2163 3434 2492 3237 
Q 2822 3041 2909 2606 
L 2403 2544 
Q 2375 2675 2300 2764 
Q 2225 2853 2119 2908 
Q 2013 2963 1880 2986 
Q 1747 3009 1603 3009 
Q 1222 3009 1040 2893 
Q 859 2778 859 2544 
Q 859 2406 926 2317 
Q 994 2228 1114 2167 
Q 1234 2106 1403 2061 
Q 1572 2016 1775 1966 
Q 1909 1931 2050 1892 
Q 2191 1853 2323 1798 
Q 2456 1744 2573 1670 
Q 2691 1597 2778 1494 
Q 2866 1391 2917 1253 
Q 2969 1116 2969 934 
z
" transform="scale(0.015625)"/>
      <path id="LiberationSans-3a" d="M 584 2734 
L 584 3381 
L 1194 3381 
L 1194 2734 
L 584 2734 
z
M 584 0 
L 584 647 
L 1194 647 
L 1194 0 
L 584 0 
z
" transform="scale(0.015625)"/>
      <path id="LiberationSans-52" d="M 3638 0 
L 2494 1828 
L 1122 1828 
L 1122 0 
L 525 0 
L 525 4403 
L 2597 4403 
Q 2972 4403 3261 4317 
Q 3550 4231 3747 4068 
Q 3944 3906 4047 3672 
Q 4150 3438 4150 3144 
Q 4150 2934 4089 2731 
Q 4028 2528 3897 2359 
Q 3766 2191 3562 2069 
Q 3359 1947 3075 1897 
L 4325 0 
L 3638 0 
z
M 3550 3138 
Q 3550 3338 3481 3484 
Q 3413 3631 3281 3729 
Q 3150 3828 2962 3876 
Q 2775 3925 2538 3925 
L 1122 3925 
L 1122 2300 
L 2563 2300 
Q 2819 2300 3006 2364 
Q 3194 2428 3314 2540 
Q 3434 2653 3492 2806 
Q 3550 2959 3550 3138 
z
" transform="scale(0.015625)"/>
      <path id="LiberationSans-64" d="M 2566 544 
Q 2409 219 2151 78 
Q 1894 -63 1513 -63 
Q 872 -63 570 368 
Q 269 800 269 1675 
Q 269 3444 1513 3444 
Q 1897 3444 2153 3303 
Q 2409 3163 2566 2856 
L 2572 2856 
Q 2572 2888 2570 2955 
Q 2569 3022 2567 3095 
Q 2566 3169 2566 3234 
Q 2566 3300 2566 3328 
L 2566 4638 
L 3128 4638 
L 3128 697 
Q 3128 575 3129 462 
Q 3131 350 3134 256 
Q 3138 163 3141 95 
Q 3144 28 3147 0 
L 2609 0 
Q 2603 31 2598 89 
Q 2594 147 2589 222 
Q 2584 297 2581 380 
Q 2578 463 2578 544 
L 2566 544 
z
M 859 1694 
Q 859 1344 903 1094 
Q 947 844 1044 683 
Q 1141 522 1291 447 
Q 1441 372 1656 372 
Q 1878 372 2048 444 
Q 2219 516 2333 677 
Q 2447 838 2506 1097 
Q 2566 1356 2566 1731 
Q 2566 2091 2506 2339 
Q 2447 2588 2331 2741 
Q 2216 2894 2048 2961 
Q 1881 3028 1663 3028 
Q 1456 3028 1306 2956 
Q 1156 2884 1056 2725 
Q 956 2566 907 2311 
Q 859 2056 859 1694 
z
" transform="scale(0.015625)"/>
      <path id="LiberationSans-76" d="M 1916 0 
L 1250 0 
L 22 3381 
L 622 3381 
L 1366 1181 
Q 1388 1113 1417 1014 
Q 1447 916 1478 809 
Q 1509 703 1536 604 
Q 1563 506 1581 441 
Q 1600 506 1629 604 
Q 1659 703 1690 806 
Q 1722 909 1755 1007 
Q 1788 1106 1813 1175 
L 2581 3381 
L 3178 3381 
L 1916 0 
z
" transform="scale(0.015625)"/>
      <path id="LiberationSans-4f" d="M 4672 2222 
Q 4672 1706 4523 1284 
Q 4375 863 4094 563 
Q 3813 263 3406 100 
Q 3000 -63 2484 -63 
Q 1941 -63 1531 107 
Q 1122 278 850 583 
Q 578 888 440 1306 
Q 303 1725 303 2222 
Q 303 2738 447 3153 
Q 591 3569 869 3861 
Q 1147 4153 1555 4311 
Q 1963 4469 2491 4469 
Q 3016 4469 3423 4309 
Q 3831 4150 4107 3856 
Q 4384 3563 4528 3147 
Q 4672 2731 4672 2222 
z
M 4063 2222 
Q 4063 2619 3961 2944 
Q 3859 3269 3661 3500 
Q 3463 3731 3169 3856 
Q 2875 3981 2491 3981 
Q 2097 3981 1800 3856 
Q 1503 3731 1304 3500 
Q 1106 3269 1007 2944 
Q 909 2619 909 2222 
Q 909 1825 1011 1495 
Q 1113 1166 1311 927 
Q 1509 688 1804 555 
Q 2100 422 2484 422 
Q 2897 422 3195 556 
Q 3494 691 3686 930 
Q 3878 1169 3970 1500 
Q 4063 1831 4063 2222 
z
" transform="scale(0.015625)"/>
      <path id="LiberationSans-59" d="M 2428 1825 
L 2428 0 
L 1834 0 
L 1834 1825 
L 141 4403 
L 797 4403 
L 2138 2306 
L 3472 4403 
L 4128 4403 
L 2428 1825 
z
" transform="scale(0.015625)"/>
      <path id="LiberationSans-41" d="M 3647 0 
L 3144 1288 
L 1138 1288 
L 631 0 
L 13 0 
L 1809 4403 
L 2488 4403 
L 4256 0 
L 3647 0 
z
M 2400 3206 
Q 2350 3331 2304 3459 
Q 2259 3588 2225 3692 
Q 2191 3797 2167 3867 
Q 2144 3938 2141 3953 
Q 2134 3938 2112 3866 
Q 2091 3794 2055 3687 
Q 2019 3581 1973 3453 
Q 1928 3325 1881 3200 
L 1319 1753 
L 2966 1753 
L 2400 3206 
z
" transform="scale(0.015625)"/>
      <path id="LiberationSans-45" d="M 525 0 
L 525 4403 
L 3866 4403 
L 3866 3916 
L 1122 3916 
L 1122 2503 
L 3678 2503 
L 3678 2022 
L 1122 2022 
L 1122 488 
L 3994 488 
L 3994 0 
L 525 0 
z
" transform="scale(0.015625)"/>
      <path id="LiberationSans-78" d="M 2503 0 
L 1594 1388 
L 678 0 
L 72 0 
L 1275 1738 
L 128 3381 
L 750 3381 
L 1594 2066 
L 2431 3381 
L 3059 3381 
L 1913 1744 
L 3131 0 
L 2503 0 
z
" transform="scale(0.015625)"/>
      <path id="LiberationSans-70" d="M 3291 1706 
Q 3291 1322 3228 997 
Q 3166 672 3020 437 
Q 2875 203 2636 70 
Q 2397 -63 2047 -63 
Q 1684 -63 1412 75 
Q 1141 213 997 525 
L 981 525 
Q 984 519 986 469 
Q 988 419 989 344 
Q 991 269 992 176 
Q 994 84 994 -6 
L 994 -1328 
L 431 -1328 
L 431 2691 
Q 431 2813 429 2925 
Q 428 3038 425 3130 
Q 422 3222 419 3287 
Q 416 3353 413 3381 
L 956 3381 
Q 959 3372 964 3315 
Q 969 3259 973 3179 
Q 978 3100 983 3009 
Q 988 2919 988 2838 
L 1000 2838 
Q 1078 3000 1178 3114 
Q 1278 3228 1406 3301 
Q 1534 3375 1692 3408 
Q 1850 3441 2047 3441 
Q 2397 3441 2636 3316 
Q 2875 3191 3020 2964 
Q 3166 2738 3228 2417 
Q 3291 2097 3291 1706 
z
M 2700 1694 
Q 2700 2006 2662 2250 
Q 2625 2494 2533 2662 
Q 2441 2831 2287 2918 
Q 2134 3006 1903 3006 
Q 1716 3006 1550 2953 
Q 1384 2900 1261 2750 
Q 1138 2600 1066 2336 
Q 994 2072 994 1650 
Q 994 1291 1053 1042 
Q 1113 794 1227 641 
Q 1341 488 1509 420 
Q 1678 353 1897 353 
Q 2131 353 2286 443 
Q 2441 534 2533 706 
Q 2625 878 2662 1126 
Q 2700 1375 2700 1694 
z
" transform="scale(0.015625)"/>
     </defs>
     <use xlink:href="#LiberationSans-48"/>
     <use xlink:href="#LiberationSans-6f" transform="translate(72.216797 0)"/>
     <use xlink:href="#LiberationSans-6d" transform="translate(127.832031 0)"/>
     <use xlink:href="#LiberationSans-65" transform="translate(211.132812 0)"/>
     <use xlink:href="#LiberationSans-2011" transform="translate(266.748047 0)"/>
     <use xlink:href="#LiberationSans-50" transform="translate(300.048828 0)"/>
     <use xlink:href="#LiberationSans-72" transform="translate(366.748047 0)"/>
     <use xlink:href="#LiberationSans-69" transform="translate(400.048828 0)"/>
     <use xlink:href="#LiberationSans-63" transform="translate(422.265625 0)"/>
     <use xlink:href="#LiberationSans-65" transform="translate(472.265625 0)"/>
     <use xlink:href="#LiberationSans-20" transform="translate(527.880859 0)"/>
     <use xlink:href="#LiberationSans-43" transform="translate(555.664062 0)"/>
     <use xlink:href="#LiberationSans-68" transform="translate(627.880859 0)"/>
     <use xlink:href="#LiberationSans-61" transform="translate(683.496094 0)"/>
     <use xlink:href="#LiberationSans-6e" transform="translate(739.111328 0)"/>
     <use xlink:href="#LiberationSans-67" transform="translate(794.726562 0)"/>
     <use xlink:href="#LiberationSans-65" transform="translate(850.341797 0)"/>
     <use xlink:href="#LiberationSans-73" transform="translate(905.957031 0)"/>
     <use xlink:href="#LiberationSans-3a" transform="translate(955.957031 0)"/>
     <use xlink:href="#LiberationSans-20" transform="translate(983.740234 0)"/>
     <use xlink:href="#LiberationSans-52" transform="translate(1011.523438 0)"/>
     <use xlink:href="#LiberationSans-65" transform="translate(1083.740234 0)"/>
     <use xlink:href="#LiberationSans-61" transform="translate(1139.355469 0)"/>
     <use xlink:href="#LiberationSans-6c" transform="translate(1194.970703 0)"/>
     <use xlink:href="#LiberationSans-69" transform="translate(1217.1875 0)"/>
     <use xlink:href="#LiberationSans-73" transform="translate(1239.404297 0)"/>
     <use xlink:href="#LiberationSans-65" transform="translate(1289.404297 0)"/>
     <use xlink:href="#LiberationSans-64" transform="translate(1345.019531 0)"/>
     <use xlink:href="#LiberationSans-20" transform="translate(1400.634766 0)"/>
     <use xlink:href="#LiberationSans-76" transform="translate(1428.417969 0)"/>
     <use xlink:href="#LiberationSans-73" transform="translate(1478.417969 0)"/>
     <use xlink:href="#LiberationSans-20" transform="translate(1528.417969 0)"/>
     <use xlink:href="#LiberationSans-4f" transform="translate(1556.201172 0)"/>
     <use xlink:href="#LiberationSans-6e" transform="translate(1633.984375 0)"/>
     <use xlink:href="#LiberationSans-65" transform="translate(1689.599609 0)"/>
     <use xlink:href="#LiberationSans-2011" transform="translate(1745.214844 0)"/>
     <use xlink:href="#LiberationSans-59" transform="translate(1778.515625 0)"/>
     <use xlink:href="#LiberationSans-65" transform="translate(1836.089844 0)"/>
     <use xlink:href="#LiberationSans-61" transform="translate(1891.705078 0)"/>
     <use xlink:href="#LiberationSans-72" transform="translate(1947.320312 0)"/>
     <use xlink:href="#LiberationSans-2011" transform="translate(1980.621094 0)"/>
     <use xlink:href="#LiberationSans-41" transform="translate(2013.921875 0)"/>
     <use xlink:href="#LiberationSans-68" transform="translate(2080.621094 0)"/>
     <use xlink:href="#LiberationSans-65" transform="translate(2136.236328 0)"/>
     <use xlink:href="#LiberationSans-61" transform="translate(2191.851562 0)"/>
     <use xlink:href="#LiberationSans-64" transform="translate(2247.466797 0)"/>
     <use xlink:href="#LiberationSans-20" transform="translate(2303.082031 0)"/>
     <use xlink:href="#LiberationSans-45" transform="translate(2330.865234 0)"/>
     <use xlink:href="#LiberationSans-78" transform="translate(2397.564453 0)"/>
     <use xlink:href="#LiberationSans-70" transform="translate(2447.564453 0)"/>
     <use xlink:href="#LiberationSans-65" transform="translate(2503.179688 0)"/>
     <use xlink:href="#LiberationSans-63" transform="translate(2558.794922 0)"/>
     <use xlink:href="#LiberationSans-74" transform="translate(2608.794922 0)"/>
     <use xlink:href="#LiberationSans-61" transform="translate(2636.578125 0)"/>
     <use xlink:href="#LiberationSans-74" transform="translate(2692.193359 0)"/>
     <use xlink:href="#LiberationSans-69" transform="translate(2719.976562 0)"/>
     <use xlink:href="#LiberationSans-6f" transform="translate(2742.193359 0)"/>
     <use xlink:href="#LiberationSans-6e" transform="translate(2797.808594 0)"/>
     <use xlink:href="#LiberationSans-73" transform="translate(2853.423828 0)"/>
    </g>
   </g>
   <g id="legend_1">
    <g id="line2d_39">
     <path d="M 48.45 42.906875 
L 58.45 42.906875 
L 68.45 42.906875 
" style="fill: none; stroke: #1f77b4; stroke-width: 2; stroke-linecap: round"/>
    </g>
    <g id="text_21">
     <!-- Actual 12‑month home price changes (YoY) -->
     <g style="fill: #262626" transform="translate(76.45 46.406875) scale(0.1 -0.1)">
      <defs>
       <path id="LiberationSans-75" d="M 981 3381 
L 981 1238 
Q 981 991 1017 825 
Q 1053 659 1134 557 
Q 1216 456 1348 414 
Q 1481 372 1678 372 
Q 1878 372 2039 442 
Q 2200 513 2314 645 
Q 2428 778 2490 973 
Q 2553 1169 2553 1422 
L 2553 3381 
L 3116 3381 
L 3116 722 
Q 3116 616 3117 498 
Q 3119 381 3122 276 
Q 3125 172 3128 97 
Q 3131 22 3134 0 
L 2603 0 
Q 2600 16 2597 84 
Q 2594 153 2589 242 
Q 2584 331 2581 423 
Q 2578 516 2578 578 
L 2569 578 
Q 2488 431 2391 312 
Q 2294 194 2166 111 
Q 2038 28 1872 -17 
Q 1706 -63 1488 -63 
Q 1206 -63 1003 6 
Q 800 75 669 219 
Q 538 363 477 588 
Q 416 813 416 1128 
L 416 3381 
L 981 3381 
z
" transform="scale(0.015625)"/>
      </defs>
      <use xlink:href="#LiberationSans-41"/>
      <use xlink:href="#LiberationSans-63" transform="translate(66.699219 0)"/>
      <use xlink:href="#LiberationSans-74" transform="translate(116.699219 0)"/>
      <use xlink:href="#LiberationSans-75" transform="translate(144.482422 0)"/>
      <use xlink:href="#LiberationSans-61" transform="translate(200.097656 0)"/>
      <use xlink:href="#LiberationSans-6c" transform="translate(255.712891 0)"/>
      <use xlink:href="#LiberationSans-20" transform="translate(277.929688 0)"/>
      <use xlink:href="#LiberationSans-31" transform="translate(305.712891 0)"/>
      <use xlink:href="#LiberationSans-32" transform="translate(361.328125 0)"/>
      <use xlink:href="#LiberationSans-2011" transform="translate(416.943359 0)"/>
      <use xlink:href="#LiberationSans-6d" transform="translate(450.244141 0)"/>
      <use xlink:href="#LiberationSans-6f" transform="translate(533.544922 0)"/>
      <use xlink:href="#LiberationSans-6e" transform="translate(589.160156 0)"/>
      <use xlink:href="#LiberationSans-74" transform="translate(644.775391 0)"/>
      <use xlink:href="#LiberationSans-68" transform="translate(672.558594 0)"/>
      <use xlink:href="#LiberationSans-20" transform="translate(728.173828 0)"/>
      <use xlink:href="#LiberationSans-68" transform="translate(755.957031 0)"/>
      <use xlink:href="#LiberationSans-6f" transform="translate(811.572266 0)"/>
      <use xlink:href="#LiberationSans-6d" transform="translate(867.1875 0)"/>
      <use xlink:href="#LiberationSans-65" transform="translate(950.488281 0)"/>
      <use xlink:href="#LiberationSans-20" transform="translate(1006.103516 0)"/>
      <use xlink:href="#LiberationSans-70" transform="translate(1033.886719 0)"/>
      <use xlink:href="#LiberationSans-72" transform="translate(1089.501953 0)"/>
      <use xlink:href="#LiberationSans-69" transform="translate(1122.802734 0)"/>
      <use xlink:href="#LiberationSans-63" transform="translate(1145.019531 0)"/>
      <use xlink:href="#LiberationSans-65" transform="translate(1195.019531 0)"/>
      <use xlink:href="#LiberationSans-20" transform="translate(1250.634766 0)"/>
      <use xlink:href="#LiberationSans-63" transform="translate(1278.417969 0)"/>
      <use xlink:href="#LiberationSans-68" transform="translate(1328.417969 0)"/>
      <use xlink:href="#LiberationSans-61" transform="translate(1384.033203 0)"/>
      <use xlink:href="#LiberationSans-6e" transform="translate(1439.648438 0)"/>
      <use xlink:href="#LiberationSans-67" transform="translate(1495.263672 0)"/>
      <use xlink:href="#LiberationSans-65" transform="translate(1550.878906 0)"/>
      <use xlink:href="#LiberationSans-73" transform="translate(1606.494141 0)"/>
      <use xlink:href="#LiberationSans-20" transform="translate(1656.494141 0)"/>
      <use xlink:href="#LiberationSans-28" transform="translate(1684.277344 0)"/>
      <use xlink:href="#LiberationSans-59" transform="translate(1717.578125 0)"/>
      <use xlink:href="#LiberationSans-6f" transform="translate(1775.152344 0)"/>
      <use xlink:href="#LiberationSans-59" transform="translate(1830.767578 0)"/>
      <use xlink:href="#LiberationSans-29" transform="translate(1897.466797 0)"/>
     </g>
    </g>
    <g id="line2d_40">
     <path d="M 48.45 57.22875 
L 58.45 57.22875 
L 68.45 57.22875 
" style="fill: none; stroke-dasharray: 7.4,3.2; stroke-dashoffset: 0; stroke: #ff7f0e; stroke-width: 2"/>
    </g>
    <g id="text_22">
     <!-- 12‑month home price changes expected one year earlier (formed this month) -->
     <g style="fill: #262626" transform="translate(76.45 60.72875) scale(0.1 -0.1)">
      <defs>
       <path id="LiberationSans-79" d="M 1888 0 
Q 1769 -306 1645 -551 
Q 1522 -797 1369 -970 
Q 1216 -1144 1028 -1236 
Q 841 -1328 597 -1328 
Q 491 -1328 400 -1322 
Q 309 -1316 209 -1294 
L 209 -872 
Q 269 -881 344 -886 
Q 419 -891 472 -891 
Q 719 -891 931 -706 
Q 1144 -522 1303 -119 
L 1356 16 
L 16 3381 
L 616 3381 
L 1328 1513 
Q 1359 1428 1407 1287 
Q 1456 1147 1504 1006 
Q 1553 866 1590 753 
Q 1628 641 1634 613 
Q 1644 647 1680 748 
Q 1716 850 1761 975 
Q 1806 1100 1853 1228 
Q 1900 1356 1931 1450 
L 2594 3381 
L 3188 3381 
L 1888 0 
z
" transform="scale(0.015625)"/>
      </defs>
      <use xlink:href="#LiberationSans-31"/>
      <use xlink:href="#LiberationSans-32" transform="translate(55.615234 0)"/>
      <use xlink:href="#LiberationSans-2011" transform="translate(111.230469 0)"/>
      <use xlink:href="#LiberationSans-6d" transform="translate(144.53125 0)"/>
      <use xlink:href="#LiberationSans-6f" transform="translate(227.832031 0)"/>
      <use xlink:href="#LiberationSans-6e" transform="translate(283.447266 0)"/>
      <use xlink:href="#LiberationSans-74" transform="translate(339.0625 0)"/>
      <use xlink:href="#LiberationSans-68" transform="translate(366.845703 0)"/>
      <use xlink:href="#LiberationSans-20" transform="translate(422.460938 0)"/>
      <use xlink:href="#LiberationSans-68" transform="translate(450.244141 0)"/>
      <use xlink:href="#LiberationSans-6f" transform="translate(505.859375 0)"/>
      <use xlink:href="#LiberationSans-6d" transform="translate(561.474609 0)"/>
      <use xlink:href="#LiberationSans-65" transform="translate(644.775391 0)"/>
      <use xlink:href="#LiberationSans-20" transform="translate(700.390625 0)"/>
      <use xlink:href="#LiberationSans-70" transform="translate(728.173828 0)"/>
      <use xlink:href="#LiberationSans-72" transform="translate(783.789062 0)"/>
      <use xlink:href="#LiberationSans-69" transform="translate(817.089844 0)"/>
      <use xlink:href="#LiberationSans-63" transform="translate(839.306641 0)"/>
      <use xlink:href="#LiberationSans-65" transform="translate(889.306641 0)"/>
      <use xlink:href="#LiberationSans-20" transform="translate(944.921875 0)"/>
      <use xlink:href="#LiberationSans-63" transform="translate(972.705078 0)"/>
      <use xlink:href="#LiberationSans-68" transform="translate(1022.705078 0)"/>
      <use xlink:href="#LiberationSans-61" transform="translate(1078.320312 0)"/>
      <use xlink:href="#LiberationSans-6e" transform="translate(1133.935547 0)"/>
      <use xlink:href="#LiberationSans-67" transform="translate(1189.550781 0)"/>
      <use xlink:href="#LiberationSans-65" transform="translate(1245.166016 0)"/>
      <use xlink:href="#LiberationSans-73" transform="translate(1300.78125 0)"/>
      <use xlink:href="#LiberationSans-20" transform="translate(1350.78125 0)"/>
      <use xlink:href="#LiberationSans-65" transform="translate(1378.564453 0)"/>
      <use xlink:href="#LiberationSans-78" transform="translate(1434.179688 0)"/>
      <use xlink:href="#LiberationSans-70" transform="translate(1484.179688 0)"/>
      <use xlink:href="#LiberationSans-65" transform="translate(1539.794922 0)"/>
      <use xlink:href="#LiberationSans-63" transform="translate(1595.410156 0)"/>
      <use xlink:href="#LiberationSans-74" transform="translate(1645.410156 0)"/>
      <use xlink:href="#LiberationSans-65" transform="translate(1673.193359 0)"/>
      <use xlink:href="#LiberationSans-64" transform="translate(1728.808594 0)"/>
      <use xlink:href="#LiberationSans-20" transform="translate(1784.423828 0)"/>
      <use xlink:href="#LiberationSans-6f" transform="translate(1812.207031 0)"/>
      <use xlink:href="#LiberationSans-6e" transform="translate(1867.822266 0)"/>
      <use xlink:href="#LiberationSans-65" transform="translate(1923.4375 0)"/>
      <use xlink:href="#LiberationSans-20" transform="translate(1979.052734 0)"/>
      <use xlink:href="#LiberationSans-79" transform="translate(2006.835938 0)"/>
      <use xlink:href="#LiberationSans-65" transform="translate(2056.835938 0)"/>
      <use xlink:href="#LiberationSans-61" transform="translate(2112.451172 0)"/>
      <use xlink:href="#LiberationSans-72" transform="translate(2168.066406 0)"/>
      <use xlink:href="#LiberationSans-20" transform="translate(2201.367188 0)"/>
      <use xlink:href="#LiberationSans-65" transform="translate(2229.150391 0)"/>
      <use xlink:href="#LiberationSans-61" transform="translate(2284.765625 0)"/>
      <use xlink:href="#LiberationSans-72" transform="translate(2340.380859 0)"/>
      <use xlink:href="#LiberationSans-6c" transform="translate(2373.681641 0)"/>
      <use xlink:href="#LiberationSans-69" transform="translate(2395.898438 0)"/>
      <use xlink:href="#LiberationSans-65" transform="translate(2418.115234 0)"/>
      <use xlink:href="#LiberationSans-72" transform="translate(2473.730469 0)"/>
      <use xlink:href="#LiberationSans-20" transform="translate(2507.03125 0)"/>
      <use xlink:href="#LiberationSans-28" transform="translate(2534.814453 0)"/>
      <use xlink:href="#LiberationSans-66" transform="translate(2568.115234 0)"/>
      <use xlink:href="#LiberationSans-6f" transform="translate(2595.898438 0)"/>
      <use xlink:href="#LiberationSans-72" transform="translate(2651.513672 0)"/>
      <use xlink:href="#LiberationSans-6d" transform="translate(2684.814453 0)"/>
      <use xlink:href="#LiberationSans-65" transform="translate(2768.115234 0)"/>
      <use xlink:href="#LiberationSans-64" transform="translate(2823.730469 0)"/>
      <use xlink:href="#LiberationSans-20" transform="translate(2879.345703 0)"/>
      <use xlink:href="#LiberationSans-74" transform="translate(2907.128906 0)"/>
      <use xlink:href="#LiberationSans-68" transform="translate(2934.912109 0)"/>
      <use xlink:href="#LiberationSans-69" transform="translate(2990.527344 0)"/>
      <use xlink:href="#LiberationSans-73" transform="translate(3012.744141 0)"/>
      <use xlink:href="#LiberationSans-20" transform="translate(3062.744141 0)"/>
      <use xlink:href="#LiberationSans-6d" transform="translate(3090.527344 0)"/>
      <use xlink:href="#LiberationSans-6f" transform="translate(3173.828125 0)"/>
      <use xlink:href="#LiberationSans-6e" transform="translate(3229.443359 0)"/>
      <use xlink:href="#LiberationSans-74" transform="translate(3285.058594 0)"/>
      <use xlink:href="#LiberationSans-68" transform="translate(3312.841797 0)"/>
      <use xlink:href="#LiberationSans-29" transform="translate(3368.457031 0)"/>
     </g>
    </g>
   </g>
  </g>
 </g>
 <defs>
  <clipPath id="p0ac0f9d3ae">
   <rect x="39.45" y="30.16" width="957.75" height="377.46"/>
  </clipPath>
 </defs>
</svg>
